
<svg width="19" height="18" viewBox="0 0 19 18" xmlns="http://www.w3.org/2000/svg"  id="">
    <path d="M17.364 15.272l-1.737 1.7.869.848a.44.44 0 00.614 0l1.123-1.098a.418.418 0 000-.6zm-6.821-4.99v1.702l4.47 4.38 1.737-1.702-4.47-4.38zm-3.474 0v1.695h1.737V10.28zm-3.475 0v1.695h1.737V10.28zM7.07 6.87v1.695h5.211V6.871zm-3.475 0v1.695h1.737V6.871zM1.857 1.755h12.16V3.46H1.857zm0-1.705C.897.05.12.813.12 1.754v11.929c0 .941.777 1.704 1.737 1.704h9.704l-1.737-1.704H1.857v-8.52h12.16l-.001 4.406 1.738 1.704V1.754c0-.941-.777-1.704-1.737-1.704z"></path>
  </svg>