<svg width="18" height="22" viewBox="0 0 18 22" xmlns="http://www.w3.org/2000/svg">
<path fill-rule="evenodd" clip-rule="evenodd" d="M4.5 0C4.372 0 4.24398 0.0489844 4.14648 0.146484C3.95148 0.341484 3.95148 0.658516 4.14648 0.853516L5.45703 2.16406C3.96911 3.25592 3 5.01275 3 7V16C3 16.552 3.448 17 4 17H5V20.5C5 21.328 5.672 22 6.5 22C7.328 22 8 21.328 8 20.5V17H10V20.5C10 21.328 10.672 22 11.5 22C12.328 22 13 21.328 13 20.5V17H14C14.552 17 15 16.552 15 16V7C15 5.01275 14.0309 3.25592 12.543 2.16406L13.8535 0.853516C14.0485 0.657516 14.0485 0.342484 13.8535 0.146484C13.6585 -0.0485156 13.3415 -0.0485156 13.1465 0.146484L11.6641 1.62891C10.8606 1.22956 9.95819 1 9 1C8.04181 1 7.13938 1.22956 6.33594 1.62891L4.85352 0.146484C4.75602 0.0489844 4.628 0 4.5 0ZM9 3C11.206 3 13 4.794 13 7H5C5 4.794 6.794 3 9 3ZM7 6V5H8V6H7ZM10 5V6H11V5H10ZM0 9C0 8.448 0.448 8 1 8C1.552 8 2 8.448 2 9V15C2 15.552 1.552 16 1 16C0.448 16 0 15.552 0 15V9ZM17 8C16.448 8 16 8.448 16 9V15C16 15.552 16.448 16 17 16C17.552 16 18 15.552 18 15V9C18 8.448 17.552 8 17 8ZM13 15V9H5V15H8H13Z"/>
</svg>
