<svg width="19" height="20" viewBox="0 0 19 20" xmlns="http://www.w3.org/2000/svg">
<path fill-rule="evenodd" clip-rule="evenodd" d="M12.9844 0C11.9204 0.114 10.7509 0.795078 10.0059 1.70508C9.36787 2.50008 8.83584 3.75 9.04884 5C10.1118 5 11.2814 4.20492 12.0254 3.29492C12.6644 2.38592 13.0904 1.25 12.9844 0ZM5.35353 5C3.72853 5 1.98933 5.978 0.945325 7.5C-0.562675 9.674 -0.330519 13.8042 2.10548 17.2832C3.03348 18.5872 4.19318 20 5.70118 20C6.34712 20 6.7684 19.8128 7.21997 19.6122C7.74155 19.3805 8.30355 19.1309 9.29884 19.1309C10.2933 19.1309 10.855 19.3804 11.3765 19.612C11.8283 19.8127 12.2499 20 12.8965 20C14.5205 20 15.6804 18.4778 16.6094 17.1738C17.2518 16.3708 17.4994 15.8467 17.8986 15.0016L18.002 14.7832C14.405 13.4792 13.8237 8.80503 17.3047 6.95703C16.1437 5.76103 14.6352 5 13.2422 5C12.2277 5 11.5256 5.29878 10.889 5.5697C10.3609 5.79443 9.87783 6 9.29884 6C8.69876 6 8.15029 5.77918 7.56881 5.54508C6.91286 5.28099 6.21492 5 5.35353 5ZM6.81003 7.39548C6.25982 7.17479 5.82404 7 5.35353 7C4.38853 7 3.25472 7.67086 2.59572 8.63086C1.60972 10.0519 1.77215 13.3198 3.74415 16.1348C4.62115 17.3678 5.28218 18 5.70118 18C5.90518 18 6.00222 17.9642 6.40822 17.7832C6.99322 17.5232 7.87984 17.1309 9.29884 17.1309C10.7178 17.1309 11.6035 17.5232 12.1895 17.7832C12.5945 17.9642 12.6905 18 12.8945 18C13.5645 18 14.5205 16.6587 14.9785 16.0137L15.0117 15.9688L15.0469 15.9238C15.1559 15.7888 15.2471 15.6668 15.3301 15.5488C13.9701 14.4498 13.1152 12.864 12.9902 11.082C12.8902 9.65403 13.2937 8.28716 14.0957 7.16016C13.8007 7.05516 13.5102 7 13.2422 7C12.6352 7 12.2309 7.17214 11.672 7.41011L11.6719 7.41016C11.0539 7.67316 10.2848 8 9.29884 8C8.31343 8 7.4906 7.66913 6.8275 7.40249L6.82228 7.40039L6.81003 7.39548Z"/>
</svg>
