<svg width="19" height="19" viewBox="0 0 19 19" xmlns="http://www.w3.org/2000/svg">
<path fill-rule="evenodd" clip-rule="evenodd" d="M14.707 0.292969C14.902 0.0979687 15.1581 0 15.4141 0C15.6701 0 15.9261 0.0979688 16.1211 0.292969L18.707 2.87891C19.098 3.26891 19.098 3.90197 18.707 4.29297L6 17C6 17 5.997 15.997 5.5 15.5C5.003 15.003 3.98438 14.9844 3.98438 14.9844C3.98438 14.9844 3.995 13.995 3.5 13.5C3.005 13.005 2 13 2 13L14.707 0.292969ZM16.5859 3.58594L15.4141 2.41406L14.3652 3.46289L15.5371 4.63477L16.5859 3.58594ZM12.9512 4.87695L14.123 6.04883L6.46094 13.7109C6.20994 13.5389 5.94555 13.4086 5.68555 13.3086C5.58755 13.0506 5.45906 12.7891 5.28906 12.5391L12.9512 4.87695ZM0 19L0.669922 15L4 18.3301L0 19Z"/>
</svg>
