<svg width="64" height="64" viewBox="0 0 64 64" xmlns="http://www.w3.org/2000/svg">
<path fill-rule="evenodd" clip-rule="evenodd" d="M25.6 0C21.4619 0 17.9355 2.69654 16.6 6.4H0V12.8H16.6C17.9355 16.5035 21.4619 19.2 25.6 19.2C30.864 19.2 35.2 14.864 35.2 9.6C35.2 4.33597 30.864 0 25.6 0ZM25.6 6.4C27.4052 6.4 28.8 7.79479 28.8 9.6C28.8 11.4052 27.4052 12.8 25.6 12.8C23.7948 12.8 22.4 11.4052 22.4 9.6C22.4 7.79479 23.7948 6.4 25.6 6.4ZM64 12.8H41.6V6.4H64V12.8ZM41.6 22.4C37.4619 22.4 33.9355 25.0965 32.6 28.8H0V35.2H32.6C33.9355 38.9035 37.4619 41.6 41.6 41.6C46.864 41.6 51.2 37.264 51.2 32C51.2 26.736 46.864 22.4 41.6 22.4ZM44.8 32C44.8 30.1948 43.4052 28.8 41.6 28.8C39.7948 28.8 38.4 30.1948 38.4 32C38.4 33.8052 39.7948 35.2 41.6 35.2C43.4052 35.2 44.8 33.8052 44.8 32ZM57.6 35.2H64V28.8H57.6V35.2ZM7 51.2C8.33555 47.4965 11.8619 44.8 16 44.8C21.264 44.8 25.6 49.136 25.6 54.4C25.6 59.664 21.264 64 16 64C11.8619 64 8.33555 61.3035 7 57.6H0V51.2H7ZM16 51.2C17.8052 51.2 19.2 52.5948 19.2 54.4C19.2 56.2052 17.8052 57.6 16 57.6C14.1948 57.6 12.8 56.2052 12.8 54.4C12.8 52.5948 14.1948 51.2 16 51.2ZM64 57.6H32V51.2H64V57.6Z"/>
</svg>
