<svg width="11" height="22" viewBox="0 0 11 22" xmlns="http://www.w3.org/2000/svg">
<path d="M9 6.00001V16.399C9 18.069 7.871 19.589 6.235 19.924C3.986 20.385 2 18.67 2 16.5V4.11301C2 3.11701 2.678 2.19101 3.661 2.02801C4.913 1.82101 6 2.78601 6 4.00001V14.5C6 14.776 5.775 15 5.5 15C5.225 15 5 14.776 5 14.5V6.00001C5 5.44801 4.552 5.00001 4 5.00001C3.448 5.00001 3 5.44801 3 6.00001V14.353C3 15.661 3.939 16.855 5.24 16.987C6.735 17.139 8 15.964 8 14.5V4.17801C8 2.09001 6.477 0.222007 4.399 0.0200073C2.014 -0.211993 0 1.66301 0 4.00001V16.255C0 19.126 2.093 21.694 4.949 21.973C8.228 22.294 11 19.714 11 16.5V6.00001C11 5.44801 10.552 5.00001 10 5.00001C9.448 5.00001 9 5.44801 9 6.00001Z"/>
</svg>
