<svg width="20" height="18" viewBox="0 0 20 18" xmlns="http://www.w3.org/2000/svg">
<path fill-rule="evenodd" clip-rule="evenodd" d="M17.2285 0.0312968C17.3623 -0.00345317 17.4964 -0.00907817 17.625 0.00981244C18.0108 0.0664843 18.343 0.347594 18.4473 0.748094L19.2949 4.00005H17.2285L16.9922 3.09966C16.5432 3.06066 16.1378 2.82127 15.8848 2.44927L9.92773 4.00005H1.99023L17.2285 0.0312968ZM0 7.00005C0 6.44805 0.448 6.00005 1 6.00005H19C19.552 6.00005 20 6.44805 20 7.00005V17C20 17.552 19.552 18 19 18H1C0.448 18 0 17.552 0 17V7.00005ZM2.91211 8.00005H17.0879C17.239 8.42596 17.5741 8.76105 18 8.91216V15.0879C17.5741 15.239 17.239 15.5741 17.0879 16H2.91211C2.761 15.5741 2.42591 15.239 2 15.0879V8.91216C2.42591 8.76105 2.761 8.42596 2.91211 8.00005ZM7 12C7 10.3432 8.34315 9.00005 10 9.00005C11.6569 9.00005 13 10.3432 13 12C13 13.6569 11.6569 15 10 15C8.34315 15 7 13.6569 7 12ZM5 11C4.448 11 4 11.447 4 12C4 12.553 4.448 13 5 13C5.552 13 6 12.553 6 12C6 11.447 5.552 11 5 11ZM14 12C14 11.447 14.448 11 15 11C15.552 11 16 11.447 16 12C16 12.553 15.552 13 15 13C14.448 13 14 12.553 14 12Z"/>
</svg>
