<svg width="16" height="20" viewBox="0 0 16 20" xmlns="http://www.w3.org/2000/svg">
<path fill-rule="evenodd" clip-rule="evenodd" d="M6.5 1.5C6.5 0.672 7.172 0 8 0C8.828 0 9.5 0.672 9.5 1.5V2.19531C12.0868 2.86209 14 5.2048 14 8V14L16 16V17H9.72852C9.90529 17.3037 9.99893 17.6486 10 18C10 19.1046 9.10457 20 8 20C6.89543 20 6 19.1046 6 18C6.00048 17.6488 6.09344 17.3039 6.26953 17H0V16L2 14V8C2 5.2048 3.91318 2.86209 6.5 2.19531V1.5ZM12 8C12 5.794 10.206 4 8 4C5.794 4 4 5.794 4 8V14V14.8281L3.82812 15H12.1719L12 14.8281V14V8Z"/>
</svg>
