<svg width="22" height="19" viewBox="0 0 22 19" xmlns="http://www.w3.org/2000/svg">
<path fill-rule="evenodd" clip-rule="evenodd" d="M11.0002 0C7.03023 0.021 3.13186 1.59689 0.265859 4.46289C-0.158141 4.88689 -0.0101406 5.44956 0.265859 5.72656L2.48266 7.94141C2.65766 8.11641 2.88547 8.20508 3.11547 8.20508C3.33647 8.20508 3.55966 8.12203 3.73266 7.95703C4.14066 7.56903 4.66339 7.09203 5.03539 6.83203C5.43739 6.55003 5.96789 6.25664 6.34789 6.05664C6.64589 5.89964 6.82831 5.59091 6.83031 5.25391L6.84008 2.46094C8.30208 2.00694 9.65817 1.82422 10.9612 1.82422H11.0002H11.0393C12.3433 1.82422 13.6984 2.00694 15.1604 2.46094L15.1702 5.25391C15.1712 5.59091 15.3546 5.89964 15.6526 6.05664C16.0316 6.25664 16.5621 6.54808 16.9651 6.83008C17.3371 7.09008 17.8608 7.56903 18.2678 7.95703C18.4408 8.12203 18.664 8.20312 18.885 8.20312C19.114 8.20312 19.3428 8.11641 19.5178 7.94141L21.7346 5.72461C22.0116 5.44861 22.1596 4.88689 21.7346 4.46289C18.8686 1.59689 14.9702 0.021 11.0002 0ZM4.83617 3.55469L4.83227 4.60547C4.46627 4.81347 4.14995 5.00936 3.88695 5.19336C3.67495 5.34136 3.43067 5.53725 3.14867 5.78125L2.49633 5.12891C3.21733 4.52191 4.00417 3.99469 4.83617 3.55469ZM19.5041 5.12891C18.7831 4.52191 17.9963 3.99564 17.1643 3.55664L17.1682 4.60547C17.5342 4.81347 17.8515 5.00936 18.1135 5.19336C18.3255 5.34136 18.5698 5.53725 18.8518 5.78125L19.5041 5.12891ZM8.00023 5V7L3.75219 10.3984C3.27719 10.7774 3.00023 11.3529 3.00023 11.9609V17H2.00023V19H20.0002V17H19.0002V11.9609C19.0002 11.3529 18.7233 10.7784 18.2483 10.3984L14.0002 7V5H12.0002V7H10.0002V5H8.00023ZM17.0002 11.9609L13.2991 9H8.70141L5.00023 11.9609V17H17.0002V11.9609ZM8.00023 11C7.44795 11 7.00023 11.4477 7.00023 12C7.00023 12.5523 7.44795 13 8.00023 13C8.55252 13 9.00023 12.5523 9.00023 12C9.00023 11.4477 8.55252 11 8.00023 11ZM10.0002 12C10.0002 11.4477 10.4479 11 11.0002 11C11.5525 11 12.0002 11.4477 12.0002 12C12.0002 12.5523 11.5525 13 11.0002 13C10.4479 13 10.0002 12.5523 10.0002 12ZM14.0002 11C13.4479 11 13.0002 11.4477 13.0002 12C13.0002 12.5523 13.4479 13 14.0002 13C14.5525 13 15.0002 12.5523 15.0002 12C15.0002 11.4477 14.5525 11 14.0002 11ZM7.00023 15C7.00023 14.4477 7.44795 14 8.00023 14C8.55252 14 9.00023 14.4477 9.00023 15C9.00023 15.5523 8.55252 16 8.00023 16C7.44795 16 7.00023 15.5523 7.00023 15ZM11.0002 14C10.4479 14 10.0002 14.4477 10.0002 15C10.0002 15.5523 10.4479 16 11.0002 16C11.5525 16 12.0002 15.5523 12.0002 15C12.0002 14.4477 11.5525 14 11.0002 14ZM13.0002 15C13.0002 14.4477 13.4479 14 14.0002 14C14.5525 14 15.0002 14.4477 15.0002 15C15.0002 15.5523 14.5525 16 14.0002 16C13.4479 16 13.0002 15.5523 13.0002 15Z"/>
</svg>
