<svg width="20" height="20" viewBox="0 0 20 20" xmlns="http://www.w3.org/2000/svg">
<path fill-rule="evenodd" clip-rule="evenodd" d="M10 0C4.48625 0 0 4.48625 0 10C0 15.5138 4.48625 20 10 20C15.5138 20 20 15.5138 20 10C20 4.48625 15.5138 0 10 0ZM9.64111 2.51709V3.78418C9.21736 3.83793 6.8457 4.28594 6.8457 7.14844C6.8457 9.44712 8.15562 10.1057 9.33345 10.6978C10.2955 11.1815 11.1694 11.6209 11.1694 12.8735C11.1694 14.2685 10.2668 14.3018 10.083 14.3018L10.0635 14.302C9.84418 14.3052 8.81592 14.3205 8.81592 12.2559H6.45264C6.45264 15.8071 8.98369 16.1484 9.44266 16.2103L9.46533 16.2134V17.4731C5.5785 17.1974 2.5 13.956 2.5 10C2.5 5.98475 5.6719 2.70599 9.64111 2.51709ZM17.5 10C17.5 6.1691 14.6131 3.00794 10.9009 2.56104V3.8208C11.3021 3.89705 13.5474 4.40912 13.5474 7.69287H11.1841C11.1841 5.97662 10.4552 5.70557 10.1489 5.70557C9.98143 5.70557 9.20654 5.74945 9.20654 7.1582C9.20709 8.23819 10.0414 8.69587 10.9768 9.20907C12.1711 9.86424 13.5303 10.6099 13.5303 12.8564C13.5303 15.7664 11.1403 16.1609 10.7178 16.2134V17.4634C14.5185 17.1011 17.5 13.8942 17.5 10Z"/>
</svg>
