<svg width="20" height="20" viewBox="0 0 20 20" xmlns="http://www.w3.org/2000/svg">
<path fill-rule="evenodd" clip-rule="evenodd" d="M7.17578 2.52344L7.66602 0H12.334L12.8242 2.52344C13.6486 2.83443 14.4071 3.26768 15.0703 3.8125L17.4922 2.97852L19.8281 7.01953L17.8867 8.70898V8.71094C17.9611 9.16837 18 9.59246 18 10C18 10.4082 17.9614 10.8328 17.8867 11.291L19.8262 12.9805L17.4922 17.0215L15.0684 16.1855C14.4049 16.7306 13.6489 17.1655 12.8242 17.4766L12.334 20H7.66602L7.17578 17.4766C6.35143 17.1656 5.5929 16.7323 4.92969 16.1875L2.50781 17.0215L0.171875 12.9805L2.11328 11.293V11.291C2.03981 10.8326 2 10.4088 2 10C2 9.59184 2.03865 9.16721 2.11328 8.70898L0.171875 7.02148L2.50781 2.97852L4.93164 3.81445C5.59479 3.26993 6.35161 2.83425 7.17578 2.52344ZM10.6855 2H9.31445L8.92578 4L7.88281 4.39453C7.25415 4.63147 6.68933 4.95675 6.19922 5.35938L5.33594 6.06836L3.41406 5.40625L2.72852 6.59375L4.26562 7.92969L4.08789 9.0293C4.02674 9.40428 4 9.71877 4 10C4 10.2807 4.02762 10.5961 4.08789 10.9727V10.9746L4.26562 12.0703L2.72852 13.4082L3.41406 14.5938L5.33594 13.9336L6.19922 14.6406C6.68933 15.0432 7.25415 15.3685 7.88281 15.6055L8.92578 16L9.31445 18H10.6836L11.0723 16L12.1152 15.6055H12.1172C12.7459 15.3685 13.3087 15.0432 13.7988 14.6406L14.6641 13.9316L16.584 14.5938L17.2695 13.4062L15.7344 12.0703L15.9121 10.9707C15.9733 10.5957 16 10.2812 16 10C16 9.71877 15.9733 9.40423 15.9121 9.0293V9.02734L15.7363 7.92773L17.2715 6.5918L16.5859 5.40625L14.6641 6.06641L13.8008 5.35938C13.3107 4.95675 12.7459 4.63147 12.1172 4.39453L11.0742 4L10.6855 2ZM10 6C7.80348 6 6 7.80348 6 10C6 12.1965 7.80348 14 10 14C12.1965 14 14 12.1965 14 10C14 7.80348 12.1965 6 10 6ZM12 10C12 8.88852 11.1115 8 10 8C8.88852 8 8 8.88852 8 10C8 11.1115 8.88852 12 10 12C11.1115 12 12 11.1115 12 10Z"/>
</svg>
