<svg width="33" height="33" viewBox="0 0 33 33" xmlns="http://www.w3.org/2000/svg">
<path fill-rule="evenodd" clip-rule="evenodd" d="M16.5 0C7.40685 0 0 7.40685 0 16.5C0 25.5932 7.40685 33 16.5 33C25.5932 33 33 25.5932 33 16.5C33 7.40685 25.5932 0 16.5 0ZM16.5 3.3C23.8097 3.3 29.7 9.1903 29.7 16.5C29.7 23.8097 23.8097 29.7 16.5 29.7C9.1903 29.7 3.3 23.8097 3.3 16.5C3.3 9.1903 9.1903 3.3 16.5 3.3ZM13.2 20.7668L23.5834 10.3834L25.9166 12.7166L13.2 25.4332L7.0834 19.3166L9.4166 16.9834L13.2 20.7668Z"/>
</svg>
