<svg width="19" height="20" viewBox="0 0 19 20" xmlns="http://www.w3.org/2000/svg">
<path fill-rule="evenodd" clip-rule="evenodd" d="M1 8C1 3.59356 4.59356 0 9 0C13.4064 0 17 3.59356 17 8V9V10C18.1 10 19 10.9 19 12V14C19 15.1 18.1 16 17 16H16H9.5C9.46411 16 9.42825 15.998 9.39258 15.9941C8.60862 15.9379 8.00105 15.286 8 14.5C8 14.1022 8.15804 13.7206 8.43934 13.4393C8.72064 13.158 9.10218 13 9.5 13C10.1349 13.0009 10.7005 13.4014 10.9121 14H15V10V9C15 8.43497 14.565 8 14 8H4C3.43497 8 3 8.43497 3 9V10V10.8516L2.49805 11.1387C2.19441 11.313 2 11.615 2 12C2 12.5151 2.36883 12.9127 2.86133 12.9805L3.44727 13.0625L3.66016 13.6133C4.69096 16.2995 6.74155 18 9 18H12V20H9C5.85024 20 3.24439 17.7231 1.94336 14.6133C0.857551 14.1629 0 13.242 0 12C0 11.1531 0.426291 10.4494 1 9.90234V9V8ZM14.6855 6.08789C13.8906 3.70738 11.6556 2 9 2C6.34441 2 4.10938 3.70738 3.31445 6.08789C3.53581 6.03504 3.7635 6 4 6H14C14.2365 6 14.4642 6.03504 14.6855 6.08789Z"/>
</svg>
