<svg width="20" height="20" viewBox="0 0 20 20" xmlns="http://www.w3.org/2000/svg">
<path fill-rule="evenodd" clip-rule="evenodd" d="M16 0L0 16V20H4L6.01172 17.9883C5.58672 17.4223 5.26923 16.7726 5.11523 16.0566L3.17188 18H2V16.8281L5.2207 13.6074C5.6967 11.9734 6.97342 10.6967 8.60742 10.2207L16 2.82812L17.1719 4L11.1719 10H14L20 4L16 0ZM6.65625 2C5.59525 2 4.57912 2.42088 3.82812 3.17188L0.707031 6.29297C-0.0779688 7.07797 -0.228391 8.3578 0.474609 9.2168C0.901609 9.7398 1.51209 10 2.12109 10C2.66409 10 3.20709 9.79291 3.62109 9.37891L4 9V8H2.12109C2.0677 8 2.03909 7.96952 2.02943 7.95921L2.02734 7.95703C2.01634 7.92503 2.02809 7.80003 2.12109 7.70703L5.24219 4.58594C5.48219 4.34594 5.7748 4.17308 6.0918 4.08008L9.6543 4L11.6543 2H6.65625ZM15 12L19 8V10.8418L15.8281 14H10C9.449 14 9 14.449 9 15C9 15.551 9.449 16 10 16H13.8418H17H19V18H10C8.343 18 7 16.657 7 15C7 13.343 8.343 12 10 12H15Z"/>
</svg>
