<?xml version="1.0" encoding="UTF-8"?>
<svg id="SVGDoc" width="40" height="40" xmlns="http://www.w3.org/2000/svg" version="1.1" xmlns:xlink="http://www.w3.org/1999/xlink" xmlns:avocode="https://avocode.com/" viewBox="0 0 40 40"><defs><clipPath id="ClipPath1086"><path d="M0,8c0,-4.41828 3.58172,-8 8,-8h24c4.41828,0 8,3.58172 8,8v24c0,4.41828 -3.58172,8 -8,8h-24c-4.41828,0 -8,-3.58172 -8,-8z" fill="#ffffff"></path></clipPath></defs><desc>Generated with Avocode.</desc><g><g><title>Group 16</title><g><title>Rectangle</title><path d="M0,8c0,-4.41828 3.58172,-8 8,-8h24c4.41828,0 8,3.58172 8,8v24c0,4.41828 -3.58172,8 -8,8h-24c-4.41828,0 -8,-3.58172 -8,-8z" fill="#1b22b4" fill-opacity="1"></path><path d="M0,8c0,-4.41828 3.58172,-8 8,-8h24c4.41828,0 8,3.58172 8,8v24c0,4.41828 -3.58172,8 -8,8h-24c-4.41828,0 -8,-3.58172 -8,-8z" fill-opacity="0" fill="#ffffff" stroke-linejoin="miter" stroke-linecap="butt" stroke-opacity="1" stroke="#3a3fb1" stroke-miterlimit="20" stroke-width="2" clip-path="url(&quot;#ClipPath1086&quot;)"></path></g><g><title>icons8-people</title><g><title>Shape</title><path d="M26.94141,24.0625c0.03715,0.14093 0.05859,0.28689 0.05859,0.4375v1.5h3v-0.99023c-0.184,-0.32 -1.198,-1.00977 -2.5,-1.00977c-0.19794,0 -0.3767,0.03397 -0.55859,0.0625zM10,25.00977v0.99023h3v-1.5c0,-0.15061 0.02144,-0.29657 0.05859,-0.4375c-0.18189,-0.02853 -0.36065,-0.0625 -0.55859,-0.0625c-1.302,0 -2.316,0.68977 -2.5,1.00977zM15,24.56641v1.43359h10v-1.43359c-0.378,-0.605 -2.866,-1.56641 -5,-1.56641c-2.134,0 -4.622,0.96141 -5,1.56641zM25.44531,22.39844c0.64116,-0.24318 1.34344,-0.39844 2.05469,-0.39844c2.237,0 4.5,1.39764 4.5,2.93164v3.06836h-24v-3.06836c0,-1.534 2.263,-2.93164 4.5,-2.93164c0.71125,0 1.41353,0.15526 2.05469,0.39844c1.57114,-0.93017 3.97058,-1.39844 5.44531,-1.39844c1.47473,0 3.87417,0.46827 5.44531,1.39844zM26.72268,17.50503c0,0.43177 0.35059,0.78237 0.78236,0.78237c0.43177,0 0.78237,-0.3506 0.78237,-0.78237c0,-0.43177 -0.3506,-0.78236 -0.78237,-0.78236c-0.43177,0 -0.78236,0.35059 -0.78236,0.78236zM11.72268,17.50503c0,0.43177 0.35059,0.78237 0.78236,0.78237c0.43177,0 0.78237,-0.3506 0.78237,-0.78237c0,-0.43177 -0.3506,-0.78236 -0.78237,-0.78236c-0.43177,0 -0.78236,0.35059 -0.78236,0.78236zM30,17.5c0,1.381 -1.119,2.5 -2.5,2.5c-1.381,0 -2.5,-1.119 -2.5,-2.5c0,-1.381 1.119,-2.5 2.5,-2.5c1.381,0 2.5,1.119 2.5,2.5zM15,17.5c0,1.381 -1.119,2.5 -2.5,2.5c-1.381,0 -2.5,-1.119 -2.5,-2.5c0,-1.381 1.119,-2.5 2.5,-2.5c1.381,0 2.5,1.119 2.5,2.5zM18.5,15.5c0,0.827 0.673,1.5 1.5,1.5c0.827,0 1.5,-0.673 1.5,-1.5c0,-0.827 -0.673,-1.5 -1.5,-1.5c-0.827,0 -1.5,0.673 -1.5,1.5zM23.5,15.5c0,1.933 -1.567,3.5 -3.5,3.5c-1.933,0 -3.5,-1.567 -3.5,-3.5c0,-1.933 1.567,-3.5 3.5,-3.5c1.933,0 3.5,1.567 3.5,3.5z" fill="#ffffff" fill-opacity="1"></path></g></g></g></g></svg>