<?xml version="1.0" encoding="UTF-8"?>
<svg id="SVGDoc" width="40" height="40" xmlns="http://www.w3.org/2000/svg" version="1.1" xmlns:xlink="http://www.w3.org/1999/xlink" xmlns:avocode="https://avocode.com/" viewBox="0 0 40 40"><defs><clipPath id="ClipPath1065"><path d="M0,8c0,-4.41828 3.58172,-8 8,-8h24c4.41828,0 8,3.58172 8,8v24c0,4.41828 -3.58172,8 -8,8h-24c-4.41828,0 -8,-3.58172 -8,-8z" fill="#ffffff"></path></clipPath></defs><desc>Generated with Avocode.</desc><g><g><title>Group 15</title><g><title>Rectangle</title><path d="M0,8c0,-4.41828 3.58172,-8 8,-8h24c4.41828,0 8,3.58172 8,8v24c0,4.41828 -3.58172,8 -8,8h-24c-4.41828,0 -8,-3.58172 -8,-8z" fill="#1b22b4" fill-opacity="1"></path><path d="M0,8c0,-4.41828 3.58172,-8 8,-8h24c4.41828,0 8,3.58172 8,8v24c0,4.41828 -3.58172,8 -8,8h-24c-4.41828,0 -8,-3.58172 -8,-8z" fill-opacity="0" fill="#ffffff" stroke-linejoin="miter" stroke-linecap="butt" stroke-opacity="1" stroke="#3a3fb1" stroke-miterlimit="20" stroke-width="2" clip-path="url(&quot;#ClipPath1065&quot;)"></path></g><g><title>icons8-user</title><g><title>Shape</title><path d="M15.18164,23.95508c-0.73615,0.29054 -1.3586,0.63689 -1.73633,0.95117c-0.37772,0.31429 -0.44531,0.52837 -0.44531,0.59375v0.5h14v-0.5c0,-0.06538 -0.06759,-0.27946 -0.44531,-0.59375c-0.37773,-0.31428 -1.00018,-0.66063 -1.73633,-0.95117c-1.4723,-0.58108 -3.40431,-0.95508 -4.81836,-0.95508c-1.41405,0 -3.34605,0.374 -4.81836,0.95508zM25.55078,22.0957c0.86897,0.34296 1.65452,0.75035 2.2832,1.27344c0.62869,0.52309 1.16602,1.23024 1.16602,2.13086v2.5h-18v-2.5c0,-0.90062 0.53734,-1.60777 1.16602,-2.13086c0.62868,-0.52309 1.41423,-0.93048 2.2832,-1.27344c1.73794,-0.68592 3.80583,-1.0957 5.55078,-1.0957c1.74495,0 3.81284,0.40978 5.55078,1.0957zM18,14c0,1.11641 0.88359,2 2,2c1.11641,0 2,-0.88359 2,-2c0,-1.11641 -0.88359,-2 -2,-2c-1.11641,0 -2,0.88359 -2,2zM24,14c0,2.19729 -1.80271,4 -4,4c-2.19729,0 -4,-1.80271 -4,-4c0,-2.19729 1.80271,-4 4,-4c2.19729,0 4,1.80271 4,4z" fill="#ffffff" fill-opacity="1"></path></g></g></g></g></svg>