<?xml version="1.0" encoding="UTF-8"?>
<svg id="SVGDoc" width="40" height="40" xmlns="http://www.w3.org/2000/svg" version="1.1" xmlns:xlink="http://www.w3.org/1999/xlink" xmlns:avocode="https://avocode.com/" viewBox="0 0 40 40"><defs><clipPath id="ClipPath1107"><path d="M0,8c0,-4.41828 3.58172,-8 8,-8h24c4.41828,0 8,3.58172 8,8v24c0,4.41828 -3.58172,8 -8,8h-24c-4.41828,0 -8,-3.58172 -8,-8z" fill="#ffffff"></path></clipPath></defs><desc>Generated with Avocode.</desc><g><g><title>Group 17</title><g><title>Rectangle</title><path d="M0,8c0,-4.41828 3.58172,-8 8,-8h24c4.41828,0 8,3.58172 8,8v24c0,4.41828 -3.58172,8 -8,8h-24c-4.41828,0 -8,-3.58172 -8,-8z" fill="#1b22b4" fill-opacity="1"></path><path d="M0,8c0,-4.41828 3.58172,-8 8,-8h24c4.41828,0 8,3.58172 8,8v24c0,4.41828 -3.58172,8 -8,8h-24c-4.41828,0 -8,-3.58172 -8,-8z" fill-opacity="0" fill="#ffffff" stroke-linejoin="miter" stroke-linecap="butt" stroke-opacity="1" stroke="#3a3fb1" stroke-miterlimit="20" stroke-width="2" clip-path="url(&quot;#ClipPath1107&quot;)"></path></g><g><title>icons8-tick_box</title><g><title>Shape</title><path d="M28.30211,11.29297l-10.29924,10.29297l-3.29498,-3.29297l-1.41492,1.41406l4.7099,4.70703l11.71416,-11.70703zM12,11c-1.103,0 -2,0.897 -2,2v14c0,1.103 0.897,2 2,2h14c1.103,0 2,-0.897 2,-2v-9.75781l-2,2l0.00195,7.75781h-14.00195v-14h11.75781l2,-2z" fill="#ffffff" fill-opacity="1"></path></g></g></g></g></svg>