<svg width="26" height="26" viewBox="0 0 26 26" fill="none" xmlns="http://www.w3.org/2000/svg">
<path fill-rule="evenodd" clip-rule="evenodd" d="M13 0C5.8318 0 0 5.8318 0 13C0 20.1682 5.8318 26 13 26C20.1682 26 26 20.1682 26 13C26 5.8318 20.1682 0 13 0ZM13 2.6C18.7343 2.6 23.4 7.2657 23.4 13C23.4 18.7343 18.7343 23.4 13 23.4C7.2657 23.4 2.6 18.7343 2.6 13C2.6 7.2657 7.2657 2.6 13 2.6ZM11.7 11.7V5.2H13V11.7H14.3V5.2H15.6V11.7H16.9V7.8H18.2V11.7V17.55C18.2 19.3453 16.7453 20.8 14.95 20.8H12.2154C11.4224 20.8 10.7062 20.4955 10.1562 20.0078L10.1486 20.0154L10.0674 19.9342C10.0325 19.9009 9.9991 19.8675 9.96582 19.8326L5.2 15.0668L5.53516 14.7316C6.11106 14.1557 7.04507 14.1557 7.62227 14.7316L9.1 16.2094V15.6V6.5H10.4V11.7H11.7Z" fill="#DE0B0B"/>
</svg>
