<svg width="26" height="26" viewBox="0 0 26 26" fill="none" xmlns="http://www.w3.org/2000/svg">
<path fill-rule="evenodd" clip-rule="evenodd" d="M13 0C5.8357 0 0 5.8357 0 13C0 20.1643 5.8357 26 13 26C20.1643 26 26 20.1643 26 13C26 5.8357 20.1643 0 13 0ZM13 2.6C18.7592 2.6 23.4 7.24084 23.4 13C23.4 15.409 22.58 17.6157 21.2139 19.3756L11.5857 9.74746C11.5909 9.53825 11.6128 9.33704 11.6619 9.15332C11.7165 8.94922 11.8014 8.77216 11.9184 8.62266C12.0341 8.47316 12.1795 8.35299 12.3602 8.26719C12.5383 8.18139 12.7542 8.14023 13.0025 8.14023C13.4601 8.14023 13.8239 8.32938 14.0969 8.70898C14.366 9.08338 14.4992 9.6499 14.5031 10.4H16.8975C16.8949 9.7734 16.8234 9.20453 16.6791 8.69883C16.5335 8.18533 16.3249 7.74028 16.0545 7.36328C15.7854 6.98628 15.4554 6.68198 15.0693 6.44668C14.8327 6.29978 14.5717 6.19602 14.3 6.11152V3.9H11.7V6.10898C11.4933 6.17268 11.2968 6.24892 11.1109 6.34512C10.7105 6.55312 10.3661 6.82358 10.0801 7.15508C9.90982 7.3523 9.77213 7.57378 9.64844 7.81016L6.62441 4.78613C8.38427 3.41996 10.591 2.6 13 2.6ZM14.5082 16.3465L4.78613 6.62441C3.41996 8.38427 2.6 10.591 2.6 13C2.6 18.7592 7.24084 23.4 13 23.4C15.409 23.4 17.6157 22.58 19.3756 21.2139L16.4684 18.3066C16.3365 18.5698 16.1881 18.8163 16.0012 19.0277C15.7152 19.354 15.3683 19.6147 14.9627 19.8123C14.7547 19.9137 14.5365 19.9974 14.3051 20.0611V22.1H11.7051V20.0865C11.4542 20.0215 11.2067 19.9405 10.9662 19.8326C10.5385 19.6415 10.1564 19.3663 9.82617 19.0049C9.49467 18.6448 9.23034 18.19 9.03144 17.6414C8.83255 17.0928 8.73438 16.3644 8.73438 15.6H11.1262C11.1262 16.0524 11.1758 16.5006 11.2785 16.8035C11.3799 17.1064 11.5157 17.349 11.6873 17.5297C11.8589 17.713 12.0542 17.839 12.2713 17.9131C12.4897 17.9872 12.7103 18.0248 12.9365 18.0248C13.1952 18.0248 13.4232 17.9823 13.6195 17.9004C13.8145 17.8172 13.9795 17.702 14.1121 17.5551C14.2447 17.4082 14.3429 17.2348 14.4092 17.0346C14.4755 16.8331 14.5082 16.6148 14.5082 16.3795V16.3465Z" fill="#5886FF"/>
</svg>
