<?xml version="1.0" encoding="UTF-8"?>
<svg id="SVGDoc" width="50" height="48" xmlns="http://www.w3.org/2000/svg" version="1.1" xmlns:xlink="http://www.w3.org/1999/xlink" xmlns:avocode="https://avocode.com/" viewBox="0 0 50 48"><defs><radialGradient id="RadialGradient1016" gradientUnits="userSpaceOnUse" cx="6.972712370113186" cy="51.11568392245107" r="71.2879514959103"><stop stop-opacity="1" stop-color="#ffdd55" offset="0"></stop><stop stop-opacity="1" stop-color="#ffcf49" offset="0.04"></stop><stop stop-opacity="1" stop-color="#ffa92b" offset="0.11"></stop><stop stop-opacity="1" stop-color="#ff8a12" offset="0.17"></stop><stop stop-opacity="1" stop-color="#ff7325" offset="0.23"></stop><stop stop-opacity="1" stop-color="#ff543f" offset="0.3"></stop><stop stop-opacity="1" stop-color="#fc5245" offset="0.42"></stop><stop stop-opacity="1" stop-color="#e64771" offset="0.54"></stop><stop stop-opacity="1" stop-color="#d53e91" offset="0.65"></stop><stop stop-opacity="1" stop-color="#cc39a4" offset="0.76"></stop><stop stop-opacity="1" stop-color="#c837ab" offset="1"></stop></radialGradient></defs><desc>Generated with Avocode.</desc><g><g clip-path="url(#clip-B9670CD8-84E3-4398-A161-7F5D622E94B2)"><title>Group</title><g><title>Rectangle</title><path d="M0,4c0,-2.20914 1.79086,-4 4,-4h42c2.20914,0 4,1.79086 4,4v40c0,2.20914 -1.79086,4 -4,4h-42c-2.20914,0 -4,-1.79086 -4,-4z" fill="url(#RadialGradient1016)"></path></g><g><title>icons8-instagram_logo</title><g><title>Shape</title><path d="M24.5,17.42105c3.37223,0 6.07894,2.70671 6.07894,6.07895c0,3.37223 -2.70671,6.07894 -6.07894,6.07894c-3.37224,0 -6.07895,-2.70671 -6.07895,-6.07894c0,-3.37224 2.70671,-6.07895 6.07895,-6.07895zM24.495,14.81579c-4.77775,0 -8.67921,3.90146 -8.67921,8.67921c0,4.77775 3.90146,8.67921 8.67921,8.67921c4.77775,0 8.67921,-3.90146 8.67921,-8.67921c0,-4.77775 -3.90146,-8.67921 -8.67921,-8.67921zM33.18421,13.07895c-0.9596,0 -1.73684,0.77724 -1.73684,1.73684c0,0.95961 0.77724,1.73684 1.73684,1.73684c0.95961,0 1.73684,-0.77723 1.73684,-1.73684c0,-0.9596 -0.77723,-1.73684 -1.73684,-1.73684zM17.98419,9.60526h13.02162c4.08988,0 7.37892,3.28822 7.37892,7.37892v13.02162c0,4.08972 -3.28921,7.37892 -7.37892,7.37892h-13.02162c-4.09071,0 -7.37892,-3.28905 -7.37892,-7.37892v-13.02162c0,-4.09087 3.28806,-7.37892 7.37892,-7.37892zM17.98684,7c-5.50024,0 -9.98684,4.4866 -9.98684,9.98684v13.02632c0,5.4995 4.48644,9.98684 9.98684,9.98684h13.02632c5.49965,0 9.98684,-4.48719 9.98684,-9.98684v-13.02632c0,-5.5004 -4.48734,-9.98684 -9.98684,-9.98684z" fill="#ffffff" fill-opacity="1"></path></g></g></g></g></svg>