<svg width="22" height="22" viewBox="0 0 22 22" fill="none" xmlns="http://www.w3.org/2000/svg">
<path d="M14.3 0.55V0.5049C13.2583 0.17765 12.1501 0 11 0C4.9247 0 0 4.9247 0 11C0 11.3713 0.0198 11.7381 0.05555 12.1H14.3V0.55Z" fill="#3F51B5"/>
<path d="M14.3 3.85001H19.349C18.8227 3.23621 18.2281 2.68566 17.5797 2.20001H14.3V3.85001Z" fill="#ECEFF1"/>
<path d="M21.9446 12.1H14.3001H0.0556641C0.111764 12.6654 0.222314 13.2132 0.360914 13.75H21.6399C21.7779 13.2132 21.8885 12.6654 21.9446 12.1Z" fill="#ECEFF1"/>
<path d="M18.849 18.7H3.15088C3.77073 19.332 4.46978 19.882 5.22603 20.35H16.7738C17.5301 19.882 18.2291 19.332 18.849 18.7Z" fill="#ECEFF1"/>
<path d="M21.0786 15.4H0.921143C1.17359 15.9775 1.47389 16.5291 1.81764 17.05H20.1821C20.5259 16.5291 20.8256 15.9775 21.0786 15.4Z" fill="#ECEFF1"/>
<path d="M14.3 7.15H21.2938C21.0788 6.5758 20.8203 6.02415 20.5167 5.5H14.3V7.15Z" fill="#ECEFF1"/>
<path d="M14.3 10.45H21.9725C21.9445 9.88899 21.8884 9.33569 21.7795 8.79999H14.3V10.45Z" fill="#ECEFF1"/>
<path d="M14.3 2.19999H17.5802C16.6326 1.49049 15.5722 0.926188 14.4227 0.549988H14.3V2.19999Z" fill="#F44336"/>
<path d="M14.3 5.50001H20.5167C20.1773 4.91371 19.7874 4.36151 19.3496 3.85001H14.3V5.50001Z" fill="#F44336"/>
<path d="M14.3 8.79999H21.7789C21.6634 8.23129 21.4929 7.68349 21.2933 7.14999H14.3V8.79999Z" fill="#F44336"/>
<path d="M14.3 12.1H21.9445C21.9802 11.7381 22 11.3713 22 11C22 10.8141 21.9813 10.6332 21.9725 10.45H14.3V12.1Z" fill="#F44336"/>
<path d="M21.6392 13.75H0.36084C0.50714 14.3181 0.69029 14.8714 0.92184 15.4H21.0788C21.3098 14.8714 21.4929 14.3181 21.6392 13.75Z" fill="#F44336"/>
<path d="M20.1824 17.05H1.81787C2.20892 17.6429 2.65552 18.1951 3.15107 18.7H18.8497C19.3447 18.1951 19.7913 17.6429 20.1824 17.05Z" fill="#F44336"/>
<path d="M5.22607 20.35C6.90577 21.3895 8.87917 22 11 22C13.1208 22 15.0942 21.3895 16.7739 20.35H5.22607Z" fill="#F44336"/>
<path d="M3.43755 4.95001L3.6933 5.49341L4.26255 5.57921L3.85005 6.00271L3.94905 6.60001L3.43755 6.31841L2.92605 6.60001L3.02505 6.00271L2.61255 5.57921L3.1818 5.49341L3.43755 4.95001Z" fill="white"/>
<path d="M5.6375 4.95001L5.89325 5.49341L6.4625 5.57921L6.05 6.00271L6.149 6.60001L5.6375 6.31841L5.126 6.60001L5.225 6.00271L4.8125 5.57921L5.38175 5.49341L5.6375 4.95001Z" fill="white"/>
<path d="M1.23749 6.31842L1.74899 6.60002L1.64999 6.00272L2.06249 5.57922L1.49324 5.49342L1.49104 5.48792C1.30954 5.80032 1.14289 6.12207 0.992188 6.45317L1.23749 6.31842Z" fill="white"/>
<path d="M7.83745 4.95001L8.0932 5.49341L8.66245 5.57921L8.24995 6.00271L8.34895 6.60001L7.83745 6.31841L7.32595 6.60001L7.42495 6.00271L7.01245 5.57921L7.5817 5.49341L7.83745 4.95001Z" fill="white"/>
<path d="M10.0374 4.95001L10.2932 5.49341L10.8624 5.57921L10.4499 6.00271L10.5489 6.60001L10.0374 6.31841L9.5259 6.60001L9.6249 6.00271L9.2124 5.57921L9.78165 5.49341L10.0374 4.95001Z" fill="white"/>
<path d="M12.0999 4.95001L12.3557 5.49341L12.9249 5.57921L12.5124 6.00271L12.6114 6.60001L12.0999 6.31841L11.5884 6.60001L11.6874 6.00271L11.2749 5.57921L11.8442 5.49341L12.0999 4.95001Z" fill="white"/>
<path d="M3.43755 9.35001L3.6933 9.89341L4.26255 9.97921L3.85005 10.4027L3.94905 11L3.43755 10.7184L2.92605 11L3.02505 10.4027L2.61255 9.97921L3.1818 9.89341L3.43755 9.35001Z" fill="white"/>
<path d="M5.6375 9.35001L5.89325 9.89341L6.4625 9.97921L6.05 10.4027L6.149 11L5.6375 10.7184L5.126 11L5.225 10.4027L4.8125 9.97921L5.38175 9.89341L5.6375 9.35001Z" fill="white"/>
<path d="M7.83745 9.35001L8.0932 9.89341L8.66245 9.97921L8.24995 10.4027L8.34895 11L7.83745 10.7184L7.32595 11L7.42495 10.4027L7.01245 9.97921L7.5817 9.89341L7.83745 9.35001Z" fill="white"/>
<path d="M1.2376 9.35001L1.49335 9.89341L2.0626 9.97921L1.6501 10.4027L1.7491 11L1.2376 10.7184L0.726098 11L0.825098 10.4027L0.412598 9.97921L0.981848 9.89341L1.2376 9.35001Z" fill="white"/>
<path d="M10.0374 9.35001L10.2932 9.89341L10.8624 9.97921L10.4499 10.4027L10.5489 11L10.0374 10.7184L9.5259 11L9.6249 10.4027L9.2124 9.97921L9.78165 9.89341L10.0374 9.35001Z" fill="white"/>
<path d="M12.0999 9.35001L12.3557 9.89341L12.9249 9.97921L12.5124 10.4027L12.6114 11L12.0999 10.7184L11.5884 11L11.6874 10.4027L11.2749 9.97921L11.8442 9.89341L12.0999 9.35001Z" fill="white"/>
<path d="M3.9876 7.14999L4.24335 7.69339L4.8126 7.77919L4.4001 8.20269L4.4991 8.79999L3.9876 8.51839L3.4761 8.79999L3.5751 8.20269L3.1626 7.77919L3.73185 7.69339L3.9876 7.14999Z" fill="white"/>
<path d="M6.18755 7.14999L6.4433 7.69339L7.01255 7.77919L6.60005 8.20269L6.69905 8.79999L6.18755 8.51839L5.67605 8.79999L5.77505 8.20269L5.36255 7.77919L5.9318 7.69339L6.18755 7.14999Z" fill="white"/>
<path d="M1.7874 7.14999L2.04315 7.69339L2.6124 7.77919L2.1999 8.20269L2.2989 8.79999L1.7874 8.51839L1.2759 8.79999L1.3749 8.20269L0.962402 7.77919L1.53165 7.69339L1.7874 7.14999Z" fill="white"/>
<path d="M8.3875 7.14999L8.64325 7.69339L9.2125 7.77919L8.8 8.20269L8.899 8.79999L8.3875 8.51839L7.876 8.79999L7.975 8.20269L7.5625 7.77919L8.13175 7.69339L8.3875 7.14999Z" fill="white"/>
<path d="M10.5875 7.14999L10.8432 7.69339L11.4125 7.77919L11 8.20269L11.099 8.79999L10.5875 8.51839L10.076 8.79999L10.175 8.20269L9.76245 7.77919L10.3317 7.69339L10.5875 7.14999Z" fill="white"/>
<path d="M12.65 7.14999L12.9057 7.69339L13.475 7.77919L13.0625 8.20269L13.1615 8.79999L12.65 8.51839L12.1385 8.79999L12.2375 8.20269L11.825 7.77919L12.3942 7.69339L12.65 7.14999Z" fill="white"/>
<path d="M3.9876 2.75L4.24335 3.2934L4.8126 3.3792L4.4001 3.8027L4.4991 4.4L3.9876 4.1184L3.4761 4.4L3.5751 3.8027L3.1626 3.3792L3.73185 3.2934L3.9876 2.75Z" fill="white"/>
<path d="M6.18755 2.75L6.4433 3.2934L7.01255 3.3792L6.60005 3.8027L6.69905 4.4L6.18755 4.1184L5.67605 4.4L5.77505 3.8027L5.36255 3.3792L5.9318 3.2934L6.18755 2.75Z" fill="white"/>
<path d="M8.3875 2.75L8.64325 3.2934L9.2125 3.3792L8.8 3.8027L8.899 4.4L8.3875 4.1184L7.876 4.4L7.975 3.8027L7.5625 3.3792L8.13175 3.2934L8.3875 2.75Z" fill="white"/>
<path d="M10.5875 2.75L10.8432 3.2934L11.4125 3.3792L11 3.8027L11.099 4.4L10.5875 4.1184L10.076 4.4L10.175 3.8027L9.76245 3.3792L10.3317 3.2934L10.5875 2.75Z" fill="white"/>
<path d="M12.65 2.75L12.9057 3.2934L13.475 3.3792L13.0625 3.8027L13.1615 4.4L12.65 4.1184L12.1385 4.4L12.2375 3.8027L11.825 3.3792L12.3942 3.2934L12.65 2.75Z" fill="white"/>
<path d="M6.14898 2.19999L6.04998 1.60269L6.46248 1.17919L6.15943 1.13354C5.83548 1.29249 5.52143 1.46684 5.21618 1.65604L5.12598 2.19999L5.63748 1.91839L6.14898 2.19999Z" fill="white"/>
<path d="M7.83745 0.549988L8.0932 1.09339L8.66245 1.17919L8.24995 1.60269L8.34895 2.19999L7.83745 1.91839L7.32595 2.19999L7.42495 1.60269L7.01245 1.17919L7.5817 1.09339L7.83745 0.549988Z" fill="white"/>
<path d="M10.0374 0.549988L10.2932 1.09339L10.8624 1.17919L10.4499 1.60269L10.5489 2.19999L10.0374 1.91839L9.5259 2.19999L9.6249 1.60269L9.2124 1.17919L9.78165 1.09339L10.0374 0.549988Z" fill="white"/>
<path d="M12.0999 0.549988L12.3557 1.09339L12.9249 1.17974L12.5124 1.60324L12.6114 2.19999L12.0999 1.91839L11.5884 2.19999L11.6874 1.60269L11.2749 1.17919L11.8442 1.09339L12.0999 0.549988Z" fill="white"/>
</svg>
