<?xml version="1.0" encoding="UTF-8"?>
<svg id="SVGDoc" width="19" height="19" xmlns="http://www.w3.org/2000/svg" version="1.1" xmlns:xlink="http://www.w3.org/1999/xlink" xmlns:avocode="https://avocode.com/" viewBox="0 0 19 19"><defs></defs><desc>Generated with Avocode.</desc><g><g><title>Group 10</title><g><title>Oval</title><path d="M9.5,19c5.24671,0 9.5,-4.25329 9.5,-9.5c0,-5.24671 -4.25329,-9.5 -9.5,-9.5c-5.24671,0 -9.5,4.25329 -9.5,9.5c0,5.24671 4.25329,9.5 9.5,9.5z" fill="#fa3535" fill-opacity="1"></path></g><g><title>icons8-trash</title><g><title>Shape</title><path d="M10.09375,6.92625v6.53575h1.1875v-6.53575zM7.71875,6.92625v6.53575h1.1875v-6.53575zM6.53125,5.73975h5.9375v8.90874h-5.9375zM8.3125,3.96l-0.59375,0.59375h-2.96875v1.1875h0.59375v8.90624c0,0.31007 0.1136,0.62617 0.33746,0.85004c0.22387,0.22386 0.53997,0.33746 0.85004,0.33746h5.9375c0.31007,0 0.62617,-0.1136 0.85004,-0.33746c0.22386,-0.22387 0.33746,-0.53997 0.33746,-0.85004v-8.90624h0.59375v-1.1875h-2.96875l-0.59375,-0.59375z" fill="#ffffff" fill-opacity="1"></path></g></g></g></g></svg>