<?xml version="1.0" encoding="UTF-8"?>
<svg id="SVGDoc" width="20" height="20" xmlns="http://www.w3.org/2000/svg" version="1.1" xmlns:xlink="http://www.w3.org/1999/xlink" xmlns:avocode="https://avocode.com/" viewBox="0 0 20 20"><defs></defs><desc>Generated with Avocode.</desc><g><g><title>icons8-pause_button</title><g><title>Shape</title><path d="M14,5v1.11111h-1.14286v0.74653c0,0.7364 -0.30102,1.44283 -0.83705,1.96397l-1.21205,1.17839l1.21205,1.17839c0.5356,0.52072 0.83705,1.22763 0.83705,1.96397v0.74653h1.14286v1.11111h-8v-1.11111h1.14286v-0.74653c0,-0.7364 0.3007,-1.44322 0.83705,-1.96397l1.21205,-1.17839l-1.21205,-1.17839c-0.53635,-0.52075 -0.83705,-1.22757 -0.83705,-1.96397v-0.74653h-1.14286v-1.11111zM8.28571,6.85764c0,0.44248 0.18029,0.86472 0.50223,1.1773l1.21206,1.17947l1.21205,-1.17839c0.32225,-0.3133 0.50223,-0.7359 0.50223,-1.17838v-0.74653h-3.42857zM8.78794,11.96506c-0.32194,0.31258 -0.50223,0.73482 -0.50223,1.1773v0.74653h0.68415c0.28167,-0.73629 1.03014,-1.11111 1.03014,-1.11111c0,0 0.74846,0.37482 1.03013,1.11111h0.68415v-0.74653c0,-0.44144 -0.18069,-0.86578 -0.50223,-1.17838l-1.21205,-1.17839zM10,0c-5.523,0 -10,4.477 -10,10c0,5.523 4.477,10 10,10c5.523,0 10,-4.477 10,-10c0,-5.523 -4.477,-10 -10,-10z" fill="#fea335" fill-opacity="1"></path></g></g></g></svg>