<svg xmlns="http://www.w3.org/2000/svg" width="33" height="34" viewBox="0 0 33 34"><g><g><g><path fill="#023b93" d="M5.107 3.95C2.294 3.95 0 6.259 0 9.09v13.442c0 2.831 2.294 5.14 5.107 5.14h1.179v4.349c0 .751.417 1.431 1.085 1.771a1.96 1.96 0 0 0 2.058-.19l7.857-5.93h9.035c2.813 0 5.108-2.309 5.108-5.14V9.09c0-.087 0-.174-.008-.254l-7.779 7.83a3.505 3.505 0 0 1-1.564.924l-4.43 1.273a2.684 2.684 0 0 1-.755.11c-.723 0-1.43-.291-1.941-.805a2.806 2.806 0 0 1-.706-2.721l1.272-4.467a3.661 3.661 0 0 1 .911-1.566l5.437-5.464z"/></g><g><path fill="#63a0ff" d="M29.47 0a3.5 3.5 0 0 0-2.49 1.036l-9.441 9.501a2.04 2.04 0 0 0-.518.884l-1.266 4.46a1.19 1.19 0 0 0 .3 1.165 1.175 1.175 0 0 0 1.157.302l4.433-1.275c.333-.096.638-.276.876-.52l9.441-9.5a3.534 3.534 0 0 0 1.033-2.509A3.533 3.533 0 0 0 29.47 0z"/></g></g></g></svg>