<svg xmlns="http://www.w3.org/2000/svg" width="36" height="37" viewBox="0 0 36 37"><g><g><g><path fill="#fff" d="M5.546 4.3C2.49 4.3 0 6.813 0 9.893v14.629c0 3.08 2.491 5.593 5.546 5.593h1.28v4.733c0 .817.452 1.558 1.178 1.928a2.124 2.124 0 0 0 2.235-.207l8.53-6.454h9.812c3.055 0 5.546-2.513 5.546-5.593V9.893c0-.094 0-.19-.008-.275l-8.447 8.519c-.46.473-1.05.826-1.698 1.007l-4.81 1.385a2.909 2.909 0 0 1-.82.12 2.986 2.986 0 0 1-2.109-.877 3.058 3.058 0 0 1-.766-2.961l1.381-4.86c.18-.646.53-1.232.99-1.705L23.744 4.3z"/></g><g><path fill="#fff" d="M32.001 0c-.98 0-1.959.376-2.704 1.128l-10.251 10.34a2.221 2.221 0 0 0-.562.96l-1.375 4.854c-.127.451-.004.936.325 1.268a1.275 1.275 0 0 0 1.257.329l4.814-1.388c.361-.104.692-.3.951-.565l10.252-10.34a3.85 3.85 0 0 0 1.121-2.729c0-1.03-.398-2-1.121-2.73A3.797 3.797 0 0 0 32 0z"/></g></g></g></svg>