<svg width="36" height="36" viewBox="0 0 36 36" fill="none" xmlns="http://www.w3.org/2000/svg">
<circle cx="18" cy="18" r="18" fill="white"/>
<mask id="mask0" mask-type="alpha" maskUnits="userSpaceOnUse" x="0" y="0" width="36" height="36">
<circle cx="18" cy="18" r="18" fill="white"/>
</mask>
<g mask="url(#mask0)">
<path d="M31.7277 15.2581H30.6V15.2H18V20.8H25.9121C24.7578 24.0599 21.6561 26.4 18 26.4C13.3611 26.4 9.6 22.6389 9.6 18C9.6 13.3611 13.3611 9.6 18 9.6C20.1413 9.6 22.0894 10.4078 23.5727 11.7273L27.5326 7.7674C25.0322 5.4371 21.6876 4 18 4C10.2685 4 4 10.2685 4 18C4 25.7315 10.2685 32 18 32C25.7315 32 32 25.7315 32 18C32 17.0613 31.9034 16.145 31.7277 15.2581Z" fill="#FFC107"/>
<path d="M5.3999 11.7201L10.1007 15.2C11.3726 12.0213 14.453 9.77692 18.0578 9.77692C20.2462 9.77692 22.2371 10.6102 23.753 11.9714L27.7999 7.88642C25.2446 5.4825 21.8265 4 18.0578 4C12.5623 4 7.79643 7.13181 5.3999 11.7201Z" fill="#FF3D00"/>
<path d="M18.1772 32C21.8845 32 25.253 30.6115 27.7999 28.3533L23.3578 24.6743C21.9168 25.7426 20.1256 26.3811 18.1772 26.3811C14.4442 26.3811 11.2744 24.0513 10.0803 20.8L5.3999 24.3295C7.77525 28.8787 12.5991 32 18.1772 32Z" fill="#4CAF50"/>
<path d="M31.7277 15.2555H30.6V15.2H18V20.5536H25.9121C25.3577 22.0506 24.3504 23.3415 23.0512 24.2818C23.0519 24.2811 23.0526 24.2811 23.0533 24.2804L27.3863 27.7857C27.0797 28.0521 32 24.5689 32 17.8768C32 16.9794 31.9034 16.1034 31.7277 15.2555Z" fill="#1976D2"/>
</g>
</svg>
