<svg width="36" height="37" viewBox="0 0 36 37" fill="none" xmlns="http://www.w3.org/2000/svg">
<circle cx="18" cy="18.5" r="18" fill="#D8D8D8"/>
<mask id="mask0" mask-type="alpha" maskUnits="userSpaceOnUse" x="0" y="0" width="36" height="37">
<circle cx="18" cy="18.5" r="18" fill="white"/>
</mask>
<g mask="url(#mask0)">
<path d="M18 0.5C8.05887 0.5 0 8.55887 0 18.5C0 28.4411 8.05887 36.5 18 36.5C27.9411 36.5 36 28.4411 36 18.5C36 8.55887 27.9411 0.5 18 0.5Z" fill="#1976D2"/>
<path d="M28.7435 13.1369C28.7849 13.001 28.8047 12.875 28.7993 12.7625C28.7858 12.4367 28.5617 12.2 28.0343 12.2H25.6781C25.0832 12.2 24.8087 12.56 24.6485 12.9209C24.6485 12.9209 23.1797 15.944 21.4868 17.9375C20.9378 18.5144 20.6588 18.5 20.3618 18.5C20.2025 18.5 19.8002 18.3074 19.8002 17.7791V13.1126C19.8002 12.488 19.6445 12.2 19.1414 12.2H14.9573C14.591 12.2 14.4002 12.488 14.4002 12.7769C14.4002 13.3772 15.2084 13.5212 15.3002 15.2033V18.464C15.3002 19.256 15.1625 19.4 14.8655 19.4C14.0645 19.4 12.4877 16.7 11.432 13.1612C11.2034 12.4646 10.9748 12.2 10.3799 12.2H8.0012C7.3145 12.2 7.2002 12.5366 7.2002 12.8966C7.2002 13.5455 7.7402 17.0537 10.6877 21.0875C12.8252 24.0125 15.6413 25.7 18.1343 25.7C19.6445 25.7 19.7993 25.3157 19.7993 24.7154V22.0406C19.8002 21.3197 19.9649 21.2 20.4455 21.2C20.7884 21.2 21.4877 21.425 22.8377 23C24.3947 24.8162 24.6773 25.7 25.5701 25.7H27.9263C28.4735 25.7 28.7876 25.4705 28.8002 25.025C28.8029 24.9116 28.7867 24.7847 28.7498 24.6434C28.5752 24.125 27.7742 22.8578 26.7752 21.65C26.2217 20.9813 25.6754 20.3189 25.4243 19.9589C25.256 19.724 25.1921 19.5584 25.2002 19.4C25.2083 19.2335 25.2947 19.0751 25.4243 18.8537C25.4009 18.8537 28.4465 14.5778 28.7435 13.1369Z" fill="white"/>
</g>
</svg>
