<svg width="39" height="37" viewBox="0 0 39 37" fill="none" xmlns="http://www.w3.org/2000/svg">
<circle cx="19.5" cy="18.5" r="18.5" fill="white"/>
<mask id="mask0" mask-type="alpha" maskUnits="userSpaceOnUse" x="1" y="0" width="37" height="37">
<circle cx="19.5" cy="18.5" r="18.5" fill="white"/>
</mask>
<g mask="url(#mask0)">
<path d="M1.06689 18.5C1.06689 8.32131 9.32131 0.0668945 19.5 0.0668945C29.6787 0.0668945 37.9332 8.32131 37.9332 18.5C37.9332 28.6787 29.6787 36.9332 19.5 36.9332C9.32131 36.9332 1.06689 28.6787 1.06689 18.5Z" fill="#3CB881"/>
<path d="M25.7483 6.90222H13.3555C10.9409 6.90222 9.70752 8.12813 9.70752 10.5502V34.1173C10.0047 34.303 10.3093 34.4888 10.6214 34.6597V11.5532H28.3933V34.6448C28.735 34.459 29.0694 34.251 29.3963 34.043V10.5502C29.3963 8.12813 28.1704 6.90222 25.7483 6.90222Z" fill="#202121"/>
<path d="M28.3935 34.6448V11.5532H10.6216V34.6596C13.2591 36.1084 16.283 36.9406 19.5001 36.9406C22.7246 36.9331 25.7559 36.101 28.3935 34.6448Z" fill="#61A5B1"/>
<path d="M21.8629 9.63638C21.8629 9.87414 21.6697 10.0599 21.4394 10.0599H17.6725C17.4348 10.0599 17.249 9.86671 17.249 9.63638C17.249 9.39863 17.4422 9.21289 17.6725 9.21289H21.4394C21.6697 9.21289 21.8629 9.39863 21.8629 9.63638Z" fill="black"/>
<path d="M34.79 24.1912C34.79 25.1422 34.0173 25.9149 33.0663 25.9149H19.9752C19.0242 25.9149 18.2515 25.1422 18.2515 24.1912V16.5683C18.2515 15.6173 19.0242 14.8446 19.9752 14.8446H33.0663C34.0173 14.8446 34.79 15.6173 34.79 16.5683V24.1912Z" fill="white"/>
<path d="M22.4794 28.2404C22.3457 28.3741 22.1228 28.3741 21.9891 28.2404L20.3322 25.9075C20.1985 25.7737 20.1985 25.5508 20.3322 25.4171H24.1288C24.2626 25.5508 24.2626 25.7737 24.1288 25.9075L22.4794 28.2404Z" fill="white"/>
<path fill-rule="evenodd" clip-rule="evenodd" d="M32.1454 18.0023C32.1454 18.3143 31.8928 18.5744 31.5734 18.5744H22.2342C21.9221 18.5744 21.6621 18.3217 21.6621 18.0023C21.6621 17.6902 21.9147 17.4302 22.2342 17.4302H31.5808C31.8928 17.4302 32.1454 17.6902 32.1454 18.0023ZM32.1454 20.2832C32.1454 20.5952 31.8928 20.8553 31.5734 20.8553H22.2342C21.9221 20.8553 21.6621 20.6027 21.6621 20.2832C21.6621 19.9711 21.9147 19.7111 22.2342 19.7111H31.5808C31.8928 19.7111 32.1454 19.9711 32.1454 20.2832ZM31.5734 23.1362C31.8928 23.1362 32.1454 22.8762 32.1454 22.5641C32.1454 22.2446 31.8928 21.992 31.5808 21.992H22.2342C21.9147 21.992 21.6621 22.2521 21.6621 22.5641C21.6621 22.8836 21.9221 23.1362 22.2342 23.1362H31.5734Z" fill="#B7CAC4"/>
</g>
</svg>
