<svg width="36" height="36" viewBox="0 0 36 36" fill="none" xmlns="http://www.w3.org/2000/svg">
<circle cx="18" cy="18" r="18" fill="white"/>
<mask id="mask0" mask-type="alpha" maskUnits="userSpaceOnUse" x="0" y="0" width="36" height="36">
<circle cx="18" cy="18" r="18" fill="white"/>
</mask>
<g mask="url(#mask0)">
<path fill-rule="evenodd" clip-rule="evenodd" d="M0 18C0 8.07496 8.07496 0 18 0C27.925 0 36 8.07496 36 18C36 27.925 27.925 36 18 36C8.07496 36 0 27.925 0 18ZM23.4783 11.7391C23.4783 8.71357 21.0256 6.26087 18 6.26087C14.9744 6.26087 12.5217 8.71357 12.5217 11.7391C12.5217 14.7647 14.9744 17.2174 18 17.2174C21.0256 17.2174 23.4783 14.7647 23.4783 11.7391ZM18 9.3913C16.7033 9.3913 15.6522 10.4425 15.6522 11.7391C15.6522 13.0358 16.7033 14.087 18 14.087C19.2967 14.087 20.3478 13.0358 20.3478 11.7391C20.3478 10.4425 19.2967 9.3913 18 9.3913ZM14.0121 19.3635C13.754 19.2277 13.4833 19.1698 13.2218 19.177C12.4374 19.1986 11.7391 19.8095 11.7391 20.6841C11.7391 21.311 12.0876 21.8895 12.644 22.1775C13.2983 22.5148 13.996 22.7748 14.7137 22.9861L12.1977 25.502C11.5865 26.1133 11.5865 27.1041 12.1977 27.7154C12.8081 28.3266 13.8006 28.3266 14.411 27.7154L18 24.1264L21.589 27.7154C21.8942 28.0214 22.295 28.1739 22.6957 28.1739C23.0963 28.1739 23.4971 28.0214 23.8023 27.7154C24.4135 27.1041 24.4135 26.1133 23.8023 25.502L21.2863 22.9861C22.004 22.7748 22.7017 22.5133 23.356 22.176C23.9124 21.8887 24.2609 21.311 24.2609 20.6841C24.2609 19.518 23.0202 18.8203 21.9879 19.3635C20.7968 19.9911 19.4408 20.3478 18 20.3478C16.5592 20.3478 15.2032 19.9911 14.0121 19.3635Z" fill="#FF662B"/>
</g>
</svg>
