<svg width="36" height="36" viewBox="0 0 36 36" fill="none" xmlns="http://www.w3.org/2000/svg">
<circle cx="18" cy="18" r="18" fill="#D8D8D8"/>
<mask id="mask0" mask-type="alpha" maskUnits="userSpaceOnUse" x="0" y="0" width="36" height="36">
<circle cx="18" cy="18" r="18" fill="white"/>
</mask>
<g mask="url(#mask0)">
<path d="M18 0C8.05887 0 0 8.05887 0 18C0 27.9411 8.05887 36 18 36C27.9411 36 36 27.9411 36 18C36 8.05887 27.9411 0 18 0Z" fill="#039BE5"/>
<path d="M20.4366 22.7709H25.0948L25.8262 18.0388H20.4357V15.4525C20.4357 13.4867 21.078 11.7435 22.9168 11.7435H25.8717V7.61396C25.3525 7.54385 24.2545 7.39038 22.1798 7.39038C17.8475 7.39038 15.3076 9.67828 15.3076 14.8907V18.0388H10.854V22.7709H15.3076V35.7773C16.1896 35.91 17.083 36 18 36C18.829 36 19.638 35.9242 20.4366 35.8162V22.7709Z" fill="white"/>
</g>
</svg>
