<?xml version="1.0" encoding="utf-8"?><svg viewBox="0 0 65 64" xmlns="http://www.w3.org/2000/svg" xmlns:xlink="http://www.w3.org/1999/xlink"><style>:root>svg{display:none}:root>svg:target{display:block}</style><svg viewBox="0 0 20 20" id="ic_back" xmlns="http://www.w3.org/2000/svg"><path fill-rule="evenodd" clip-rule="evenodd" d="M10 0C4.477 0 0 4.477 0 10s4.477 10 10 10 10-4.477 10-10S15.523 0 10 0zm0 2a8 8 0 1 1 0 16 8 8 0 0 1 0-16zm-5.414 8l4.707-4.707 1.414 1.414L8.414 9H15v2H8.414l2.293 2.293-1.414 1.414L4.586 10z"/></svg><svg viewBox="0 0 19 18" id="ic_companies" xmlns="http://www.w3.org/2000/svg"><path fill-rule="evenodd" clip-rule="evenodd" d="M16 0l-1 2-9 3H2C.9 5 0 5.9 0 7v4c0 1.1.9 2 2 2h2v5h2v-5l9 3 1 2h2v-7.277A1.99 1.99 0 0 0 19 9a1.99 1.99 0 0 0-1-1.723V0h-2zm0 3.775v10.45l-.367-.123L8 11.559V6.44l7.633-2.543.367-.123zM6 7H2v4h4V7z"/></svg><svg viewBox="0 0 20 20" id="ic_departs" xmlns="http://www.w3.org/2000/svg"><path fill-rule="evenodd" clip-rule="evenodd" d="M10 0C4.489 0 0 4.489 0 10s4.489 10 10 10 10-4.489 10-10S15.511 0 10 0zm0 2c4.43 0 8 3.57 8 8s-3.57 8-8 8-8-3.57-8-8 3.57-8 8-8zM5.293 9.293L10 4.586l4.707 4.707-1.414 1.414L11 8.414V15H9V8.414l-2.293 2.293-1.414-1.414z"/></svg><svg viewBox="0 0 18 22" id="ic_device_android" xmlns="http://www.w3.org/2000/svg"><path fill-rule="evenodd" clip-rule="evenodd" d="M4.5 0a.499.499 0 0 0-.354.854l1.311 1.31A5.986 5.986 0 0 0 3 7v9a1 1 0 0 0 1 1h1v3.5a1.5 1.5 0 0 0 3 0V17h2v3.5a1.5 1.5 0 0 0 3 0V17h1a1 1 0 0 0 1-1V7c0-1.987-.97-3.744-2.457-4.836l1.31-1.31a.5.5 0 0 0-.707-.708L11.665 1.63a5.966 5.966 0 0 0-5.328 0L4.854.146A.499.499 0 0 0 4.5 0zM9 3c2.206 0 4 1.794 4 4H5c0-2.206 1.794-4 4-4zM7 6V5h1v1H7zm3-1v1h1V5h-1zM0 9a1 1 0 0 1 2 0v6a1 1 0 0 1-2 0V9zm17-1a1 1 0 0 0-1 1v6a1 1 0 0 0 2 0V9a1 1 0 0 0-1-1zm-4 7V9H5v6h8z"/></svg><svg viewBox="0 0 19 20" id="ic_device_ios" xmlns="http://www.w3.org/2000/svg"><path fill-rule="evenodd" clip-rule="evenodd" d="M12.984 0c-1.064.114-2.233.795-2.978 1.705C9.368 2.5 8.836 3.75 9.049 5c1.063 0 2.232-.795 2.976-1.705.64-.91 1.065-2.045.96-3.295zm-7.63 5C3.729 5 1.989 5.978.945 7.5c-1.508 2.174-1.276 6.304 1.16 9.783C3.033 18.587 4.193 20 5.701 20c.646 0 1.067-.187 1.519-.388.522-.231 1.084-.481 2.079-.481.994 0 1.556.25 2.078.481.451.2.873.388 1.52.388 1.623 0 2.783-1.522 3.712-2.826.643-.803.89-1.327 1.29-2.172l.103-.219c-3.597-1.304-4.178-5.978-.697-7.826C16.144 5.761 14.635 5 13.242 5c-1.014 0-1.716.299-2.353.57-.528.224-1.011.43-1.59.43-.6 0-1.149-.22-1.73-.455C6.913 5.281 6.215 5 5.354 5zM6.81 7.395C6.26 7.175 5.824 7 5.354 7c-.965 0-2.1.67-2.758 1.63-.986 1.422-.824 4.69 1.148 7.505C4.621 17.368 5.282 18 5.701 18c.204 0 .301-.036.707-.217.585-.26 1.472-.652 2.89-.652 1.42 0 2.306.392 2.892.652.405.181.5.217.705.217.67 0 1.626-1.341 2.084-1.986l.033-.045.035-.045c.109-.135.2-.257.283-.375a6.272 6.272 0 0 1-2.34-4.467 6.004 6.004 0 0 1 1.106-3.922 2.574 2.574 0 0 0-.854-.16c-.607 0-1.011.172-1.57.41-.618.263-1.387.59-2.373.59-.986 0-1.808-.33-2.471-.598L6.821 7.4l-.012-.005z"/></svg><svg viewBox="0 0 22 20" id="ic_device_pc" xmlns="http://www.w3.org/2000/svg"><path fill-rule="evenodd" clip-rule="evenodd" d="M2 0a2 2 0 0 0-2 2v12a2 2 0 0 0 2 2h7a2 2 0 0 1-2 2v2h8v-2a2 2 0 0 1-2-2h7a2 2 0 0 0 2-2V2a2 2 0 0 0-2-2H2zm0 2h18v10H2V2zm10 12a1 1 0 1 0-2 0 1 1 0 0 0 2 0z"/></svg><svg viewBox="0 0 19 19" id="ic_edit" xmlns="http://www.w3.org/2000/svg"><path fill-rule="evenodd" clip-rule="evenodd" d="M14.707.293a.997.997 0 0 1 1.414 0l2.586 2.586a.999.999 0 0 1 0 1.414L6 17s-.003-1.003-.5-1.5c-.497-.497-1.516-.516-1.516-.516s.011-.989-.484-1.484S2 13 2 13L14.707.293zm1.879 3.293l-1.172-1.172-1.049 1.049 1.172 1.172 1.049-1.05zM12.95 4.877l1.172 1.172-7.662 7.662a3.749 3.749 0 0 0-.775-.402 3.702 3.702 0 0 0-.397-.77l7.662-7.662zM0 19l.67-4L4 18.33 0 19z"/></svg><svg viewBox="0 0 21 19" id="ic_email" xmlns="http://www.w3.org/2000/svg"><path fill-rule="evenodd" clip-rule="evenodd" d="M9.45 0v2.111H6.3l4.2 4.222 4.2-4.222h-3.15V0h-2.1zM2.1 2.111c-1.16 0-2.1.945-2.1 2.111V16.89C0 18.055.94 19 2.1 19h16.8c1.16 0 2.1-.945 2.1-2.111V4.222c0-1.166-.94-2.11-2.1-2.11h-1.23l-1.485 1.492-.615.618h3.33v2.113l-8.4 5.276-8.4-5.276V4.222h3.33l-.615-.618L3.33 2.11H2.1zM18.9 16.89V8.447l-8.4 5.275-8.4-5.275v8.442h16.8z"/></svg><svg viewBox="0 0 20 20" id="ic_error" xmlns="http://www.w3.org/2000/svg"><path fill-rule="evenodd" clip-rule="evenodd" d="M10 0C4.489 0 0 4.489 0 10s4.489 10 10 10 10-4.489 10-10S15.511 0 10 0zm0 2c4.43 0 8 3.57 8 8s-3.57 8-8 8-8-3.57-8-8 3.57-8 8-8zM5.293 6.707l1.414-1.414L10 8.586l3.293-3.293 1.414 1.414L11.414 10l3.293 3.293-1.414 1.414L10 11.414l-3.293 3.293-1.414-1.414L8.586 10 5.293 6.707z"/></svg><svg viewBox="0 0 11 22" id="ic_file" xmlns="http://www.w3.org/2000/svg"><path d="M9 6v10.399c0 1.67-1.129 3.19-2.765 3.525A3.506 3.506 0 0 1 2 16.5V4.113c0-.996.678-1.922 1.661-2.085A2.003 2.003 0 0 1 6 4v10.5a.5.5 0 0 1-1 0V6a1 1 0 0 0-2 0v8.353c0 1.308.939 2.502 2.24 2.634A2.503 2.503 0 0 0 8 14.5V4.178C8 2.09 6.477.222 4.399.02A4.004 4.004 0 0 0 0 4v12.255c0 2.871 2.093 5.439 4.949 5.718A5.506 5.506 0 0 0 11 16.5V6a1 1 0 0 0-2 0z"/></svg><svg viewBox="0 0 64 64" id="ic_filter" xmlns="http://www.w3.org/2000/svg"><path fill-rule="evenodd" clip-rule="evenodd" d="M25.6 0c-4.138 0-7.665 2.697-9 6.4H0v6.4h16.6c1.335 3.703 4.862 6.4 9 6.4 5.264 0 9.6-4.336 9.6-9.6 0-5.264-4.336-9.6-9.6-9.6zm0 6.4c1.805 0 3.2 1.395 3.2 3.2 0 1.805-1.395 3.2-3.2 3.2-1.805 0-3.2-1.395-3.2-3.2 0-1.805 1.395-3.2 3.2-3.2zM64 12.8H41.6V6.4H64v6.4zm-22.4 9.6c-4.138 0-7.665 2.697-9 6.4H0v6.4h32.6c1.335 3.703 4.862 6.4 9 6.4 5.264 0 9.6-4.336 9.6-9.6 0-5.264-4.336-9.6-9.6-9.6zm3.2 9.6c0-1.805-1.395-3.2-3.2-3.2-1.805 0-3.2 1.395-3.2 3.2 0 1.805 1.395 3.2 3.2 3.2 1.805 0 3.2-1.395 3.2-3.2zm12.8 3.2H64v-6.4h-6.4v6.4zM7 51.2c1.336-3.704 4.862-6.4 9-6.4 5.264 0 9.6 4.336 9.6 9.6 0 5.264-4.336 9.6-9.6 9.6-4.138 0-7.664-2.697-9-6.4H0v-6.4h7zm9 0c1.805 0 3.2 1.395 3.2 3.2 0 1.805-1.395 3.2-3.2 3.2-1.805 0-3.2-1.395-3.2-3.2 0-1.805 1.395-3.2 3.2-3.2zm48 6.4H32v-6.4h32v6.4z"/></svg><svg viewBox="0 0 18 20" id="ic_logout" xmlns="http://www.w3.org/2000/svg"><path fill-rule="evenodd" clip-rule="evenodd" d="M0 2a2 2 0 0 1 2-2h8a2 2 0 0 1 2 2v5h-2V2H2v16h8v-5h2v5a2 2 0 0 1-2 2H2a2 2 0 0 1-2-2V2zm14 7V6l4 4-4 4v-3H5V9h9z"/></svg><svg viewBox="0 0 20 18" id="ic_money" xmlns="http://www.w3.org/2000/svg"><path fill-rule="evenodd" clip-rule="evenodd" d="M17.229.031a1 1 0 0 1 1.219.717L19.294 4h-2.067l-.236-.9a1.495 1.495 0 0 1-1.107-.65L9.928 4H1.99L17.23.031zM0 7.001A1 1 0 0 1 1 6h18a1 1 0 0 1 1 1v10a1 1 0 0 1-1 1H1a1 1 0 0 1-1-1V7zm2.912.999h14.176a1.5 1.5 0 0 0 .912.912v6.176a1.5 1.5 0 0 0-.912.912H2.912A1.5 1.5 0 0 0 2 15.088V8.912A1.5 1.5 0 0 0 2.912 8zM7 12a3 3 0 1 1 6 0 3 3 0 0 1-6 0zm-2-1a1 1 0 1 0 0 2 1 1 0 0 0 0-2zm9 1a1 1 0 1 1 2 0 1 1 0 0 1-2 0z"/></svg><svg viewBox="0 0 16 20" id="ic_notice" xmlns="http://www.w3.org/2000/svg"><path fill-rule="evenodd" clip-rule="evenodd" d="M6.5 1.5a1.5 1.5 0 0 1 3 0v.695A5.997 5.997 0 0 1 14 8v6l2 2v1H9.729A2 2 0 0 1 10 18a2 2 0 1 1-3.73-1H0v-1l2-2V8a5.997 5.997 0 0 1 4.5-5.805V1.5zM12 8c0-2.206-1.794-4-4-4S4 5.794 4 8v6.828L3.828 15h8.344L12 14.828V8z"/></svg><svg viewBox="0 0 18 18" id="ic_pause" xmlns="http://www.w3.org/2000/svg"><path fill-rule="evenodd" clip-rule="evenodd" d="M0 2C0 .907.907 0 2 0h14c1.093 0 2 .907 2 2v14c0 1.093-.907 2-2 2H2c-1.093 0-2-.907-2-2V2zm16 0H2v14h14V2zM6 5v8h2V5H6zm4 8V5h2v8h-2z"/></svg><svg viewBox="0 0 20 20" id="ic_pay" xmlns="http://www.w3.org/2000/svg"><path fill-rule="evenodd" clip-rule="evenodd" d="M10 0C4.486 0 0 4.486 0 10s4.486 10 10 10 10-4.486 10-10S15.514 0 10 0zm-.359 2.517v1.267c-.424.054-2.795.502-2.795 3.364 0 2.3 1.31 2.958 2.487 3.55.963.483 1.836.923 1.836 2.175 0 1.396-.902 1.429-1.086 1.429h-.02c-.219.003-1.247.018-1.247-2.046H6.453c0 3.551 2.53 3.892 2.99 3.954l.022.003v1.26C5.58 17.197 2.5 13.956 2.5 10c0-4.015 3.172-7.294 7.141-7.483zM17.5 10c0-3.83-2.887-6.992-6.6-7.439v1.26c.402.076 2.647.588 2.647 3.872h-2.363c0-1.716-.729-1.987-1.035-1.987-.168 0-.942.043-.942 1.452 0 1.08.834 1.538 1.77 2.051 1.194.655 2.553 1.4 2.553 3.647 0 2.91-2.39 3.305-2.812 3.357v1.25c3.8-.362 6.782-3.569 6.782-7.463z"/></svg><svg viewBox="0 0 22 19" id="ic_phone" xmlns="http://www.w3.org/2000/svg"><path fill-rule="evenodd" clip-rule="evenodd" d="M11 0C7.03.021 3.132 1.597.266 4.463c-.424.424-.276.987 0 1.264L2.483 7.94a.891.891 0 0 0 1.25.016c.408-.388.93-.865 1.302-1.125.402-.282.933-.575 1.313-.775a.909.909 0 0 0 .482-.803l.01-2.793a13.715 13.715 0 0 1 4.121-.637h.078c1.304 0 2.66.183 4.121.637l.01 2.793a.907.907 0 0 0 .483.803c.379.2.91.491 1.312.773.372.26.896.739 1.303 1.127a.892.892 0 0 0 1.25-.016l2.217-2.216c.277-.276.425-.838 0-1.262C18.869 1.597 14.97.02 11 0zM4.836 3.555l-.004 1.05c-.366.208-.682.404-.945.588a9.355 9.355 0 0 0-.738.588l-.653-.652a13.258 13.258 0 0 1 2.34-1.574zm14.668 1.574a13.193 13.193 0 0 0-2.34-1.572l.004 1.048c.366.208.684.404.945.588.213.148.457.344.739.588l.652-.652zM8 5v2l-4.248 3.398A2 2 0 0 0 3 11.961V17H2v2h18v-2h-1v-5.04c0-.607-.277-1.182-.752-1.562L14 7V5h-2v2h-2V5H8zm9 6.96L13.3 9H8.7l-3.7 2.96V17h12v-5.04zM8 11a1 1 0 1 0 0 2 1 1 0 0 0 0-2zm2 1a1 1 0 1 1 2 0 1 1 0 0 1-2 0zm4-1a1 1 0 1 0 0 2 1 1 0 0 0 0-2zm-7 4a1 1 0 1 1 2 0 1 1 0 0 1-2 0zm4-1a1 1 0 1 0 0 2 1 1 0 0 0 0-2zm2 1a1 1 0 1 1 2 0 1 1 0 0 1-2 0z"/></svg><svg viewBox="0 0 20 20" id="ic_plus" xmlns="http://www.w3.org/2000/svg"><path fill-rule="evenodd" clip-rule="evenodd" d="M10 0C4.486 0 0 4.486 0 10s4.486 10 10 10 10-4.486 10-10S15.514 0 10 0zm0 2c4.411 0 8 3.589 8 8s-3.589 8-8 8-8-3.589-8-8 3.589-8 8-8zM9 9V6h2v3h3v2h-3v3H9v-3H6V9h3z"/></svg><svg viewBox="0 0 18 18" id="ic_refresh" xmlns="http://www.w3.org/2000/svg"><path fill-rule="evenodd" clip-rule="evenodd" d="M0 9c0-4.962 4.037-9 9-9a8.96 8.96 0 0 1 6.834 3.166L18 1v6h-6l2.408-2.408C13.125 3.017 11.185 2 9 2 5.141 2 2 5.14 2 9H0zm9 7c3.859 0 7-3.141 7-7h2c0 4.963-4.037 9-9 9a8.96 8.96 0 0 1-6.834-3.166L0 17v-6h6l-2.408 2.408C4.875 14.983 6.815 16 9 16z"/></svg><svg viewBox="0 0 18 18" id="ic_save" xmlns="http://www.w3.org/2000/svg"><path fill-rule="evenodd" clip-rule="evenodd" d="M0 2C0 .906.906 0 2 0h12l4 4v12c0 1.094-.906 2-2 2H2c-1.094 0-2-.906-2-2V2zm13.172 0H2v14h14V4.828L13.172 2zM4 4v3h8V4H4zm2 7.5a2.5 2.5 0 1 1 5 0 2.5 2.5 0 0 1-5 0z"/></svg><svg viewBox="0 0 20 20" id="ic_send" xmlns="http://www.w3.org/2000/svg"><path fill-rule="evenodd" clip-rule="evenodd" d="M0 7.271L20 0l-7.271 20L0 7.271zm11.922 9.094l4.734-13.021L3.635 8.078l3.344 3.344 6.658-5.059-5.059 6.658 3.344 3.344z"/></svg><svg viewBox="0 0 20 20" id="ic_settings" xmlns="http://www.w3.org/2000/svg"><path fill-rule="evenodd" clip-rule="evenodd" d="M7.176 2.523L7.666 0h4.668l.49 2.523a7.951 7.951 0 0 1 2.246 1.29l2.422-.834 2.336 4.04-1.941 1.69v.002c.074.457.113.881.113 1.289 0 .408-.039.833-.113 1.291l1.94 1.69-2.335 4.04-2.424-.835c-.663.545-1.42.98-2.244 1.29L12.334 20H7.666l-.49-2.523a7.953 7.953 0 0 1-2.246-1.29l-2.422.834-2.336-4.04 1.941-1.688v-.002A8.135 8.135 0 0 1 2 10c0-.408.039-.833.113-1.291L.172 7.021 2.508 2.98l2.424.835a7.951 7.951 0 0 1 2.244-1.29zM10.686 2H9.313l-.388 2-1.043.395a5.941 5.941 0 0 0-1.684.964l-.863.71-1.922-.663-.685 1.188L4.266 7.93l-.178 1.1C4.027 9.403 4 9.718 4 10c0 .28.028.596.088.973v.002l.178 1.095-1.537 1.338.685 1.186 1.922-.66.863.707c.49.402 1.055.727 1.684.964L8.926 16l.388 2h1.37l.388-2 1.043-.395h.002a5.932 5.932 0 0 0 1.682-.964l.865-.71 1.92.663.686-1.188-1.536-1.336.178-1.1c.061-.374.088-.689.088-.97s-.027-.596-.088-.97v-.003l-.176-1.1 1.535-1.335-.685-1.186-1.922.66-.863-.707a5.94 5.94 0 0 0-1.684-.964L11.074 4l-.389-2zM10 6c-2.197 0-4 1.803-4 4s1.803 4 4 4 4-1.803 4-4-1.803-4-4-4zm2 4c0-1.111-.889-2-2-2s-2 .889-2 2 .889 2 2 2 2-.889 2-2z"/></svg><svg viewBox="0 0 18 18" id="ic_start" xmlns="http://www.w3.org/2000/svg"><path fill-rule="evenodd" clip-rule="evenodd" d="M2 0C.907 0 0 .907 0 2v14c0 1.093.907 2 2 2h14c1.093 0 2-.907 2-2V2c0-1.093-.907-2-2-2H2zm0 2h14v14H2V2zm11 7l-7 4V5l7 4z"/></svg><svg viewBox="0 0 14 14" id="ic_stop" xmlns="http://www.w3.org/2000/svg"><path fill-rule="evenodd" clip-rule="evenodd" d="M0 14V0h14v14H0zm2-2h10V2H2v10z"/></svg><svg viewBox="0 0 33 33" id="ic_success" xmlns="http://www.w3.org/2000/svg"><path fill-rule="evenodd" clip-rule="evenodd" d="M16.5 0C7.407 0 0 7.407 0 16.5S7.407 33 16.5 33 33 25.593 33 16.5 25.593 0 16.5 0zm0 3.3c7.31 0 13.2 5.89 13.2 13.2s-5.89 13.2-13.2 13.2S3.3 23.81 3.3 16.5 9.19 3.3 16.5 3.3zm-3.3 17.467l10.383-10.384 2.334 2.334L13.2 25.433l-6.117-6.116 2.334-2.334 3.783 3.784z"/></svg><svg viewBox="0 0 19 20" id="ic_support" xmlns="http://www.w3.org/2000/svg"><path fill-rule="evenodd" clip-rule="evenodd" d="M1 8c0-4.406 3.594-8 8-8 4.406 0 8 3.594 8 8v2c1.1 0 2 .9 2 2v2c0 1.1-.9 2-2 2H9.5a1.5 1.5 0 0 1 0-3 1.5 1.5 0 0 1 1.412 1H15V9c0-.565-.435-1-1-1H4c-.565 0-1 .435-1 1V10.852l-.502.287A.964.964 0 0 0 2 12c0 .515.369.913.861.98l.586.082.213.551C4.691 16.3 6.742 18 9 18h3v2H9c-3.15 0-5.756-2.277-7.057-5.387C.858 14.163 0 13.242 0 12c0-.847.426-1.55 1-2.098V8zm13.685-1.912A5.98 5.98 0 0 0 9 2a5.98 5.98 0 0 0-5.686 4.088A2.94 2.94 0 0 1 4 6h10c.236 0 .464.035.685.088z"/></svg><svg viewBox="0 0 65 64" id="ic_warning" xmlns="http://www.w3.org/2000/svg"><path fill-rule="evenodd" clip-rule="evenodd" d="M.5 32c0-17.635 14.365-32 32-32 17.635 0 32 14.365 32 32 0 17.635-14.365 32-32 32-17.635 0-32-14.365-32-32zm57.6 0c0-14.176-11.424-25.6-25.6-25.6C18.324 6.4 6.9 17.824 6.9 32c0 14.176 11.424 25.6 25.6 25.6 14.176 0 25.6-11.424 25.6-25.6zM29.3 16v6.4h6.4V16h-6.4zm0 32V28.8h6.4V48h-6.4z"/></svg><svg viewBox="0 0 20 20" id="ic_write" xmlns="http://www.w3.org/2000/svg"><path fill-rule="evenodd" clip-rule="evenodd" d="M16 0L0 16v4h4l2.012-2.012a4.95 4.95 0 0 1-.897-1.931L3.172 18H2v-1.172l3.22-3.22a4.976 4.976 0 0 1 3.387-3.387L16 2.828 17.172 4l-6 6H14l6-6-4-4zM6.656 2c-1.06 0-2.077.42-2.828 1.172L.707 6.293c-.785.785-.935 2.065-.232 2.924A2.115 2.115 0 0 0 2.12 10c.543 0 1.086-.207 1.5-.621L4 9V8H2.121a.12.12 0 0 1-.092-.04l-.002-.003c-.01-.032.001-.157.094-.25l3.121-3.121c.24-.24.533-.413.85-.506L9.654 4l2-2H6.656zM15 12l4-4v2.842L15.828 14H10c-.551 0-1 .449-1 1 0 .551.449 1 1 1h9v2h-9a3 3 0 1 1 0-6h5z"/></svg><svg viewBox="0 0 65 64" id="ic_end" xmlns="http://www.w3.org/2000/svg"><path fill-rule="evenodd" clip-rule="evenodd" d="M29.3 28.8V48h6.4V28.8zm0-12.8v6.4h6.4V16zm3.2-9.6c14.176 0 25.6 11.424 25.6 25.6 0 14.176-11.424 25.6-25.6 25.6C18.324 57.6 6.9 46.176 6.9 32c0-14.176 11.424-25.6 25.6-25.6zm0-6.4C14.865 0 .5 14.365.5 32c0 17.635 14.365 32 32 32 17.635 0 32-14.365 32-32 0-17.635-14.365-32-32-32z"></path></svg><svg xmlns="http://www.w3.org/2000/svg" viewBox="0 0 19 18" id="ic_check"><path fill-rule="evenodd" clip-rule="evenodd" d="M13.474 5.684l-5.8 5.626L5.56 9.26l-1.303 1.265 3.417 3.314 7.104-6.89zM9.517 1.84c4.084 0 7.374 3.194 7.374 7.157 0 3.964-3.29 7.157-7.374 7.157-4.083 0-7.374-3.193-7.374-7.157 0-3.963 3.291-7.157 7.374-7.157zm0-1.79C4.437.05.3 4.066.3 8.997c0 4.931 4.138 8.948 9.217 8.948 5.08 0 9.218-4.017 9.218-8.948 0-4.93-4.138-8.947-9.218-8.947z"></path></svg><svg viewBox="0 0 19 18" xmlns="http://www.w3.org/2000/svg" id="ic_correction"><path d="M17.364 15.272l-1.737 1.7.869.848a.44.44 0 00.614 0l1.123-1.098a.418.418 0 000-.6zm-6.821-4.99v1.702l4.47 4.38 1.737-1.702-4.47-4.38zm-3.474 0v1.695h1.737V10.28zm-3.475 0v1.695h1.737V10.28zM7.07 6.87v1.695h5.211V6.871zm-3.475 0v1.695h1.737V6.871zM1.857 1.755h12.16V3.46H1.857zm0-1.705C.897.05.12.813.12 1.754v11.929c0 .941.777 1.704 1.737 1.704h9.704l-1.737-1.704H1.857v-8.52h12.16l-.001 4.406 1.738 1.704V1.754c0-.941-.777-1.704-1.737-1.704z"></path></svg><svg xmlns="http://www.w3.org/2000/svg" viewBox="0 0 22 16" id="ic_eye"><path d="M11 6a2 2 0 11.001 3.999A2 2 0 0111 6zm0-2a4 4 0 100 8 4 4 0 000-8zm0-2c5.276 0 7.945 4.267 8.809 5.996C18.944 9.713 16.255 14 11 14c-5.276 0-7.945-4.267-8.809-5.996C3.057 6.287 5.745 2 11 2zm0-2C3 0 0 8 0 8s3 8 11 8 11-8 11-8-3-8-11-8z"></path>
  </svg></svg>