<?xml version="1.0" encoding="UTF-8"?>
<svg id="SVGDoc" width="50" height="48" xmlns="http://www.w3.org/2000/svg" version="1.1" xmlns:xlink="http://www.w3.org/1999/xlink" xmlns:avocode="https://avocode.com/" viewBox="0 0 50 48"><defs></defs><desc>Generated with Avocode.</desc><g><g clip-path="url(#clip-6B1B5A5C-14A6-4AEE-89D3-D84C493AE616)"><title>Group</title><g><title>Rectangle</title><path d="M0,4c0,-2.20914 1.79086,-4 4,-4h42c2.20914,0 4,1.79086 4,4v40c0,2.20914 -1.79086,4 -4,4h-42c-2.20914,0 -4,-1.79086 -4,-4z" fill="#1976d2" fill-opacity="1"></path></g><g><title>Path</title><path d="M38.92349,17.2492c0.05558,-0.1812 0.08216,-0.3492 0.07491,-0.4992c-0.01812,-0.4344 -0.31899,-0.75 -1.02707,-0.75h-3.16337c-0.7987,0 -1.16723,0.48 -1.38231,0.9612c0,0 -1.97198,4.0308 -4.24482,6.6888c-0.73708,0.7692 -1.11165,0.75 -1.5104,0.75c-0.21387,0 -0.75399,-0.2568 -0.75399,-0.9612v-6.222c0,-0.8328 -0.20904,-1.2168 -0.88449,-1.2168h-5.61746c-0.49179,0 -0.74795,0.384 -0.74795,0.7692c0,0.8004 1.08507,0.9924 1.20831,3.2352v4.3476c0,1.056 -0.18487,1.248 -0.58361,1.248c-1.0754,0 -3.19238,-3.6 -4.60973,-8.3184c-0.30692,-0.9288 -0.61383,-1.2816 -1.41253,-1.2816h-3.19358c-0.92194,0 -1.0754,0.4488 -1.0754,0.9288c0,0.8652 0.72499,5.5428 4.68223,10.9212c2.86975,3.9 6.65058,6.15 9.99762,6.15c2.02755,0 2.23538,-0.5124 2.23538,-1.3128v-3.5664c0.00121,-0.9612 0.22233,-1.1208 0.86757,-1.1208c0.46037,0 1.39924,0.3 3.21171,2.4c2.09039,2.4216 2.4698,3.6 3.66845,3.6h3.16338c0.73465,0 1.15636,-0.306 1.17327,-0.9c0.00363,-0.1512 -0.01812,-0.3204 -0.06766,-0.5088c-0.23442,-0.6912 -1.30982,-2.3808 -2.65105,-3.9912c-0.74312,-0.8916 -1.47656,-1.7748 -1.81369,-2.2548c-0.22595,-0.3132 -0.31174,-0.534 -0.30087,-0.7452c0.01088,-0.222 0.12688,-0.4332 0.30087,-0.7284c-0.03141,0 4.05753,-5.7012 4.45628,-7.6224z" fill="#ffffff" fill-opacity="1"></path></g></g></g></svg>