<?xml version="1.0" encoding="UTF-8"?>
<svg id="SVGDoc" width="64" height="64" xmlns="http://www.w3.org/2000/svg" version="1.1" xmlns:xlink="http://www.w3.org/1999/xlink" xmlns:avocode="https://avocode.com/" viewBox="0 0 64 64"><defs></defs><desc>Generated with Avocode.</desc><g><g><title>Shape</title><path d="M28.8,28.8v19.2h6.4v-19.2zM28.8,16v6.4h6.4v-6.4zM32,6.4c14.17639,0 25.6,11.42361 25.6,25.6c0,14.17639 -11.42361,25.6 -25.6,25.6c-14.17639,0 -25.6,-11.42361 -25.6,-25.6c0,-14.17639 11.42361,-25.6 25.6,-25.6zM32,0c-17.63521,0 -32,14.36479 -32,32c0,17.63521 14.36479,32 32,32c17.63521,0 32,-14.36479 32,-32c0,-17.63521 -14.36479,-32 -32,-32z" fill="#63a0ff" fill-opacity="1"></path></g></g></svg>